<?xml version="1.0" encoding="utf-8"?>
<!-- Generator: Adobe Illustrator 27.9.0, SVG Export Plug-In . SVG Version: 6.00 Build 0)  -->
<svg version="1.1" xmlns="http://www.w3.org/2000/svg" xmlns:xlink="http://www.w3.org/1999/xlink" x="0px" y="0px"
	 viewBox="0 0 173.3 173.3" style="enable-background:new 0 0 173.3 173.3;" xml:space="preserve">
<style type="text/css">
	.st0{fill:#FFFFFF;}
	.st1{fill:#BF311A;}
</style>
<g id="Layer_1">
</g>
<g id="For_Sheets">
	<g>
		<g>
			<g>
				<path class="st0" d="M11.1,173.2c-6,0-10.9-4.9-10.9-10.9V11.1C0.1,5,5,0.1,11.1,0.1h151.2c6,0,10.9,4.9,10.9,10.9v151.2
					c0,6-4.9,10.9-10.9,10.9H11.1z"/>
				<path d="M162.2,0.2c6,0,10.8,4.8,10.8,10.8v151.2c0,6-4.8,10.8-10.8,10.8H11c-6,0-10.8-4.8-10.8-10.8V11.1
					c0-6,4.8-10.8,10.8-10.8H162.2 M162.2,0H11C5,0,0,5,0,11.1v151.2c0,6.1,5,11.1,11,11.1h151.2c6.1,0,11-5,11-11.1V11.1
					C173.3,5,168.3,0,162.2,0L162.2,0z"/>
			</g>
			<path d="M11,170.4c-4.5,0-8.1-3.6-8.1-8.1V11.1C2.9,6.6,6.6,3,11,3h151.2c4.5,0,8.1,3.6,8.1,8.1v151.2c0,4.5-3.6,8.1-8.1,8.1H11z
				"/>
			<path class="st0" d="M11,165.9c-2,0-3.6-1.6-3.6-3.6V11.1c0-2,1.6-3.6,3.6-3.6h151.2c2,0,3.6,1.6,3.6,3.6v151.2
				c0,2-1.6,3.6-3.6,3.6H11z"/>
		</g>
		<g>
			<path d="M120.9,75.5c-4.1,0-7.9,1.2-11.2,3.2l-7.3-9.7l1-3.4c4.6-0.4,7.1-2.1,7-3.8c-0.2-1.6-4.7-0.4-9.8-0.3
				c-1.4,0-8.8,0-8.7,1.3c0,1.4,4.8,2.5,8.1,2.8l-0.6,2.1H69.6c0.6-2.1,1.2-4,1.7-5.5c0.4-1.3,0.7-2.2,0.8-2.7l-2.2-1.7l1-1h8v-2.6
				h-9.1L66,58.2l2.5,1.9c-1.2,3.8-3.9,12.8-5.6,18.2c-3.1-1.8-6.6-2.8-10.4-2.8c-11.5,0-20.9,9.3-20.9,20.9
				c0,11.5,9.3,20.9,20.9,20.9s20.9-9.3,20.9-20.9c0-6.5-3-12.3-7.6-16.1c0.2-0.7,0.4-1.4,0.7-2.1l22.5,24.4c0,0.1,0,0.1,0,0.2
				c0,1.3,1.1,2.4,2.4,2.4l1.6,6h-1.6v1.6h5.1v-1.6h-2l-1.7-6.3c0.3-0.2,0.6-0.5,0.8-0.8l7.6-1.6c2.6,8.6,10.6,14.9,20,14.9
				c11.5,0,20.9-9.3,20.9-20.9C141.8,84.9,132.4,75.5,120.9,75.5z M69.3,96.4c0,9.4-7.6,16.9-16.9,16.9c-9.4,0-16.9-7.6-16.9-16.9
				c0-9.4,7.6-16.9,16.9-16.9c3.3,0,6.4,1,9,2.6c-2.1,4.5-6.1,9.4-9.1,12.1c-1.2,0-2.2,1-2.2,2.2c0,1.2,1,2.2,2.2,2.2
				c1.1,0,2.1-0.8,2.2-1.9c1.4-1.3,3.3-3.3,5.1-5.7c1.4-1.8,3.1-4.2,4.4-6.8C67.3,87.2,69.3,91.6,69.3,96.4z M90.8,98.3l-1-3.9h1.6
				v-1.6h-5.1v1.6h2l1,3.9L67.5,74.5c0.4-1.1,0.7-2.3,1.1-3.5h29.8L90.8,98.3z M100.2,99.1l-6.6,1.4l7.7-27.5l5.8,7.7
				c-4.3,3.8-7,9.4-7,15.6C100,97.3,100.1,98.2,100.2,99.1z M104,96.4c0-4.9,2.1-9.4,5.5-12.5l8.6,11.4l-13.9,3
				C104,97.7,104,97,104,96.4z M120.9,113.3c-7.5,0-13.9-4.9-16.1-11.8l15.1-3.2c0.3,0.2,0.7,0.3,1.1,0.3c1.2,0,2.2-1,2.2-2.2
				c0-1.1-0.8-2-1.8-2.2l-9.3-12.3c2.6-1.6,5.6-2.5,8.8-2.5c9.4,0,16.9,7.6,16.9,16.9C137.8,105.7,130.3,113.3,120.9,113.3z"/>
		</g>
		<g>
			<path class="st1" d="M86.6,11.1C44.9,11.1,11,44.9,11,86.7s33.8,75.6,75.6,75.6s75.6-33.8,75.6-75.6S128.4,11.1,86.6,11.1z
				 M86.6,147.9c-33.8,0-61.2-27.4-61.2-61.2c0-14.3,4.9-27.5,13.1-37.9l86,86C114.1,142.9,101,147.9,86.6,147.9z M134.7,124.5
				l-86-86c10.4-8.2,23.6-13.1,37.9-13.1c33.8,0,61.2,27.4,61.2,61.2C147.8,101,142.9,114.1,134.7,124.5z"/>
		</g>
	</g>
</g>
</svg>
