<svg id="R1-3P" xmlns="http://www.w3.org/2000/svg" width="18in" height="6in" viewBox="0 0 1296 432">
  <defs>
    <style>
      .a {
        fill: #fff;
      }
    </style>
  </defs>
  <g>
    <rect class="a" width="1296" height="432" rx="108"/>
    <path d="M1188,2.2537A105.8659,105.8659,0,0,1,1293.7463,108V324A105.8659,105.8659,0,0,1,1188,429.7463H108A105.8659,105.8659,0,0,1,2.2537,324V108A105.8659,105.8659,0,0,1,108,2.2537ZM108,0A108,108,0,0,0,0,108V324A108,108,0,0,0,108,432H1188a108,108,0,0,0,108-108V108A108,108,0,0,0,1188,0Z"/>
  </g>
  <rect x="36" y="36" width="1224" height="360" rx="72" fill="#af1e2d"/>
  <g id="ALL WAY">
    <g id="ALL">
      <path class="a" d="M235.9345,264.8975H189.6029L175.1577,324H144l53.9454-216h30.429l53.919,216H251.1358ZM197.19,234.576h31.1577l-15.9569-62.1542Z"/>
      <path class="a" d="M308.5211,108h31.1576V295.1906h79.0561V324H308.5211Z"/>
      <path class="a" d="M444.9575,108h31.1577V295.1906h79.056V324H444.9575Z"/>
    </g>
    <g id="WAY">
      <path class="a" d="M795.896,324,775.377,211.0859,754.83,324h-27.351L693.2429,108h30.429l18.2519,115.21L763.2,108H787.553l20.52,115.21L827.0811,108H857.51L822.5183,324Z"/>
      <path class="a" d="M958.4,264.8975H912.0684L897.6232,324H866.4655l53.9459-216H950.84l53.9185,216H973.6013ZM919.6553,234.576H950.813l-15.9573-62.1542Z"/>
      <path class="a" d="M1098.0541,324h-31.1577V226.2329L1013.7066,108h32.67l36.4764,78.0568L1118.5742,108H1152l-53.9459,118.2329Z"/>
    </g>
  </g>
</svg>
