<svg version="1.1" viewBox="0.95 0.95 18.1 18.1" xmlns="http://www.w3.org/2000/svg">
 <g stroke="#000">
  <rect x="1" y="1" width="18" height="18" ry="1.5" fill="#fff" stroke-width=".1"/>
  <rect x="1.6875" y="1.6875" width="16.625" height="16.625" ry=".8125" fill="none" stroke-width=".625"/>
 </g>
 <path transform="matrix(.017638954 0 0 .017638954 3.3089799 3.0138251)" d="m350.52599 129.88477a45.629502 45.629502 0 0 1-91.259003 0 45.629502 45.629502 0 0 1 91.259003 0zm-183.79161 242.09961 95.722656-63.816406c4.421875-18.699219 22.777344-101.73047 59.597657-120.94531 36.46875-24.113281 170.92969 74.9375 171.70312 75.753906v144.49609l-29.152343-5.070312-11.410157-115.34375c-10.984374-2.210938-21.96875-4.417969-32.953124-6.628906 24.003906 62.058593 32.820312 121.86328 19.011718 161.26562l58.304688 238.29688-39.292969 27.882812-84.921875-220.54688-39.292969 41.828125-54.503906 166.04688-51.96875-19.015625 46.898437-174.91797 54.503907-97.597656-20.894531-72.03125-22.203126 28.933594-103.9375 34.222656z"/>
 <path d="m5 5 10 10m2.125-5a7.125 7.125 0 0 1-14.25 0 7.125 7.125 0 0 1 14.25 0z" fill="none" stroke="#a6192e" stroke-width="1.5"/>
</svg>
