<?xml version="1.0" encoding="utf-8"?>
<!-- Generator: Adobe Illustrator 27.7.0, SVG Export Plug-In . SVG Version: 6.00 Build 0)  -->
<svg version="1.1" id="For_Sheets" xmlns="http://www.w3.org/2000/svg" xmlns:xlink="http://www.w3.org/1999/xlink" x="0px" y="0px"
	 viewBox="0 0 216.5 302.9" style="enable-background:new 0 0 216.5 302.9;" xml:space="preserve">
<style type="text/css">
	.st0{fill:#FFFFFF;}
	.st1{fill-rule:evenodd;clip-rule:evenodd;fill:#FFFFFF;}
	.st2{fill-rule:evenodd;clip-rule:evenodd;}
</style>
<g>
	<g>
		<path class="st0" d="M13.7,302.8c-7.5,0-13.6-6.1-13.6-13.6V13.7c0-7.5,6.1-13.6,13.6-13.6h189c7.5,0,13.6,6.1,13.6,13.6v275.4
			c0,7.5-6.1,13.6-13.6,13.6H13.7z"/>
		<path d="M202.8,0.2c7.4,0,13.5,6.1,13.5,13.5v275.4c0,7.4-6.1,13.5-13.5,13.5h-189c-7.4,0-13.5-6.1-13.5-13.5V13.7
			c0-7.4,6.1-13.5,13.5-13.5H202.8 M202.8,0h-189C6.2,0,0,6.2,0,13.7v275.4c0,7.6,6.2,13.8,13.8,13.8h189c7.6,0,13.8-6.2,13.8-13.8
			V13.7C216.5,6.2,210.3,0,202.8,0L202.8,0z"/>
	</g>
	<path d="M202.8,299.1h-189c-5.4,0-9.9-4.5-9.9-9.9V13.8c0-5.4,4.5-9.9,9.9-9.9h189c5.4,0,9.9,4.5,9.9,9.9v275.4
		C212.6,294.6,208.2,299.1,202.8,299.1z M9.2,92.1v197.1c0,2.5,2,4.5,4.5,4.5h189c2.5,0,4.5-2,4.5-4.5V92.1H9.2z"/>
	<polygon class="st1" points="108.3,12 126.2,47.9 108.3,84 90.2,47.9 	"/>
	<polygon class="st2" points="108.3,24 96.3,47.9 108.3,71.9 120.2,47.9 	"/>
	<path d="M36.4,184.9h10.6v3.5H32.4c0.1-2.5,0.6-4.6,1.8-6.6c3.8-6.3,9.5-5.7,9.5-9c0-1.6-1.8-2.9-3.9-2.9c-2.2,0-3.6,1.1-3.9,3
		l-3.4-0.8c0.8-3.6,3.6-5.8,7.3-5.8c4.1,0,7.3,2.9,7.3,6.4c0,2.6-1.5,4.2-3.4,5.4C40.7,180,38.1,180.8,36.4,184.9z"/>
	<g>
		<path d="M124.1,175.8l-5,12.5l-5-12.5v12.5h-3.4v-21.6h3.4l5,12.1l5-12.1h3.4v21.6h-3.4V175.8z"/>
		<path d="M155.8,178.9v9.4h-3.4v-21.6h7.8c5,0,6.4,4,6.4,6.1c0,0.8-0.3,4-3.4,5.4l3.8,10.1h-3.7l-3.5-9.4H155.8z M160.1,175.5
			c2.7,0,3.1-2,3.1-2.7c0-0.9-0.7-2.7-3-2.7h-4.5v5.3H160.1z"/>
		<path d="M170.7,166.8h12.7v3.4h-9.3v5.3h6.3v3.5h-6.3v5.9h10v3.5h-13.4V166.8z"/>
	</g>
	<g>
		<path d="M54.2,217.7h-4v9.4h-3.4v-21.6h8.2c5.1,0,6.5,4.1,6.5,6.1C61.5,212.9,60.7,217.7,54.2,217.7z M50.2,214.2H55
			c2.7,0,3-2,3-2.7c0-1-0.8-2.7-2.9-2.7h-4.9V214.2z"/>
		<path d="M64.7,205.5h12.7v3.4h-9.3v5.3h6.3v3.5h-6.3v5.9h10v3.5H64.7V205.5z"/>
		<path d="M85.2,217.6v9.4h-3.4v-21.6h7.8c5,0,6.4,4,6.4,6.1c0,0.8-0.3,4-3.4,5.4l3.8,10.1h-3.7l-3.5-9.4H85.2z M89.5,214.2
			c2.7,0,3.1-2,3.1-2.7c0-0.9-0.7-2.7-3-2.7h-4.5v5.3H89.5z"/>
		<path d="M98.6,222l3.3-1.2c0.9,2,2.6,3.2,4.6,3.2c2,0,3.3-1.4,3.3-3.2c0-2.9-3.3-3.3-6.1-4.5c-1.3-0.5-4.2-1.8-4.2-5.4
			c0-4.2,2.9-5.8,6.7-5.8c3,0,5.1,1.7,6.1,4.4l-3,0.9c-0.3-0.9-1.6-1.9-3.2-1.9c-3.1,0-3.3,1.6-3.3,2.2c0,2,1.7,2.4,4.6,3.3
			c2.9,0.9,5.9,2.2,5.9,6.9c0,4.7-3.8,6.6-6.8,6.6C102.8,227.4,100.1,225.2,98.6,222z"/>
		<path d="M140.1,212.4v14.6h-3.4v-21.6h3.4l7.9,13.8v-13.8h3.4v21.6h-3L140.1,212.4z"/>
		<path d="M155,222l3.3-1.2c0.9,2,2.6,3.2,4.6,3.2c2,0,3.3-1.4,3.3-3.2c0-2.9-3.3-3.3-6.1-4.5c-1.3-0.5-4.2-1.8-4.2-5.4
			c0-4.2,2.9-5.8,6.7-5.8c3,0,5.1,1.7,6.1,4.4l-3,0.9c-0.3-0.9-1.6-1.9-3.2-1.9c-3.1,0-3.3,1.6-3.3,2.2c0,2,1.7,2.4,4.6,3.3
			c2.9,0.9,5.9,2.2,5.9,6.9c0,4.7-3.8,6.6-6.8,6.6C159.2,227.4,156.5,225.2,155,222z"/>
	</g>
	<g>
		<path d="M26.5,256.4h-4v9.4H19v-21.6h8.2c5.1,0,6.5,4.1,6.5,6.1C33.7,251.6,33,256.4,26.5,256.4z M22.4,252.9h4.8c2.7,0,3-2,3-2.7
			c0-1-0.8-2.7-2.9-2.7h-4.9V252.9z"/>
		<path d="M37,244.2h12.7v3.4h-9.3v5.3h6.3v3.5h-6.3v5.9h10v3.5H37V244.2z"/>
		<path d="M57.5,256.3v9.4H54v-21.6h7.8c5,0,6.4,4,6.4,6.1c0,0.8-0.3,4-3.4,5.4l3.8,10.1H65l-3.5-9.4H57.5z M61.7,252.9
			c2.7,0,3.1-2,3.1-2.7c0-0.9-0.7-2.7-3-2.7h-4.5v5.3H61.7z"/>
	</g>
	<g>
		<path d="M90,265.8l-6.8-21.6h3.6l4.6,14.4l4.6-14.4h3.7l-6.9,21.6H90z"/>
		<path d="M102.8,244.2h12.7v3.4h-9.3v5.3h6.3v3.5h-6.3v5.9h10v3.5h-13.4V244.2z"/>
		<path d="M131.2,256.4h-7.9v9.4h-3.4v-21.6h3.4v8.7h7.9v-8.7h3.4v21.6h-3.4V256.4z"/>
		<path d="M139.8,244.2h3.5v21.6h-3.5V244.2z"/>
		<path d="M148,254.9c0-3,0.6-11.1,8-11.1c3.1,0,5.3,1.3,6.7,4.4l-3.2,1.4c-1.1-1.6-1.7-2.3-3.6-2.3c-4.5,0-4.5,6.3-4.5,7.7
			c0,1.3-0.1,7.7,4.6,7.7c1.6,0,2.6-1,3.3-2.5l3.3,1.2c-1.2,3-3.3,4.8-6.5,4.8C148.4,266.1,148,257.5,148,254.9z"/>
		<path d="M167.4,244.2h3.4v18.4h10v3.2h-13.4V244.2z"/>
		<path d="M184.1,244.2h12.7v3.4h-9.3v5.3h6.3v3.5h-6.3v5.9h10v3.5h-13.4V244.2z"/>
	</g>
	<g>
		<g>
			<path d="M85,178.9v9.4h-3.4v-21.6h7.8c5,0,6.4,4,6.4,6.1c0,0.8-0.3,4-3.4,5.4l3.8,10.1h-3.7l-3.5-9.4H85z M89.3,175.5
				c2.7,0,3.1-2,3.1-2.7c0-0.9-0.7-2.7-3-2.7H85v5.3H89.3z"/>
		</g>
		<g>
			<path d="M76.8,177.6c0,0.8,0.2,11.2-7.7,11.2s-7.7-10.4-7.7-11.2c0-0.8-0.2-11.2,7.7-11.2S76.8,176.8,76.8,177.6z M69.2,185.2
				c2.3,0,4.2-2.2,4.2-7.7c0-5.5-1.9-7.7-4.2-7.7c-2.3,0-4.2,2.2-4.2,7.7C65,183,66.8,185.2,69.2,185.2z"/>
		</g>
	</g>
	<g>
		<path d="M147.6,177.6c0,0.8,0.2,11.2-7.7,11.2c-7.8,0-7.7-10.4-7.7-11.2c0-0.8-0.2-11.2,7.7-11.2
			C147.8,166.4,147.6,176.8,147.6,177.6z M140,185.2c2.3,0,4.2-2.2,4.2-7.7c0-5.5-1.9-7.7-4.2-7.7c-2.3,0-4.2,2.2-4.2,7.7
			C135.8,183,137.7,185.2,140,185.2z"/>
	</g>
	<g>
		<path d="M131.9,216.3c0,0.8,0.2,11.2-7.7,11.2s-7.7-10.4-7.7-11.2c0-0.8-0.2-11.2,7.7-11.2S131.9,215.5,131.9,216.3z M124.3,223.9
			c2.3,0,4.2-2.2,4.2-7.7c0-5.5-1.9-7.7-4.2-7.7c-2.3,0-4.2,2.2-4.2,7.7C120.1,221.7,122,223.9,124.3,223.9z"/>
	</g>
	<g>
		<g>
			<path d="M88.5,146.2h10.6v3.5H84.4c0.1-2.5,0.6-4.6,1.8-6.6c3.8-6.3,9.5-5.7,9.5-9c0-1.6-1.8-2.9-3.9-2.9c-2.2,0-3.6,1.1-3.9,3
				l-3.4-0.8c0.8-3.6,3.6-5.8,7.3-5.8c4.1,0,7.3,2.9,7.3,6.4c0,2.6-1.5,4.2-3.4,5.4C92.8,141.3,90.1,142.1,88.5,146.2z"/>
			<path d="M110.9,146.2h-3.4v-5.4H102v-3.5h5.5v-5.4h3.4v5.4h5.5v3.5h-5.5V146.2z"/>
		</g>
		<g>
			<g>
				<path d="M27.3,140.3h-7.9v9.4H16v-21.6h3.4v8.7h7.9v-8.7h3.4v21.6h-3.4V140.3z"/>
				<path d="M60.5,149.6l-6.8-21.6h3.6l4.6,14.4l4.6-14.4H70l-6.9,21.6H60.5z"/>
			</g>
			<g>
				<path d="M50.8,138.9c0,0.8,0.2,11.2-7.7,11.2s-7.7-10.4-7.7-11.2c0-0.8-0.2-11.2,7.7-11.2S50.8,138.1,50.8,138.9z M43.2,146.5
					c2.3,0,4.2-2.2,4.2-7.7c0-5.5-1.9-7.7-4.2-7.7c-2.3,0-4.2,2.2-4.2,7.7C38.9,144.3,40.8,146.5,43.2,146.5z"/>
			</g>
		</g>
		<g>
			<g>
				<path d="M150.7,135v14.6h-3.4v-21.6h3.4l7.9,13.8v-13.8h3.4v21.6h-3L150.7,135z"/>
				<path d="M167.2,128.1h3.4v18.4h10v3.2h-13.4V128.1z"/>
				<path d="M193,149.7h-3.4v-9.4l-7.6-12.2h4.1l5.2,8.3l5.3-8.3h4l-7.5,12.2V149.7z"/>
			</g>
			<g>
				<path d="M142.6,138.9c0,0.8,0.2,11.2-7.7,11.2s-7.7-10.4-7.7-11.2c0-0.8-0.2-11.2,7.7-11.2S142.6,138.1,142.6,138.9z
					 M134.9,146.5c2.3,0,4.2-2.2,4.2-7.7c0-5.5-1.9-7.7-4.2-7.7c-2.3,0-4.2,2.2-4.2,7.7C130.7,144.3,132.6,146.5,134.9,146.5z"/>
			</g>
		</g>
	</g>
</g>
</svg>
