<?xml version="1.0" encoding="UTF-8"?>
<svg id="R4-7" xmlns="http://www.w3.org/2000/svg" width="24in" height="30in" viewBox="0 0 1728 2160">
  <g>
    <rect width="1728" height="2160" rx="108" ry="108" fill="#fff"/>
    <path d="M1620,.56c28.7,0,55.68,11.18,75.97,31.47,20.29,20.29,31.47,47.27,31.47,75.97v1944c0,28.7-11.18,55.68-31.47,75.97-20.29,20.29-47.27,31.47-75.97,31.47H108c-28.7,0-55.68-11.18-75.97-31.47-20.29-20.29-31.47-47.27-31.47-75.97V108c0-28.7,11.18-55.68,31.47-75.97C52.32,11.74,79.3.56,108,.56h1512ZM108,0C48.35,0,0,48.35,0,108v1944c0,59.65,48.35,108,108,108h1512c59.65,0,108-48.35,108-108V108c0-59.65-48.35-108-108-108H108Z"/>
  </g>
  <path d="M1620,27H108c-44.7,0-81,36.3-81,81v1944c0,44.7,36.3,81,81,81h1512c44.7,0,81-36.3,81-81V108c0-44.7-36.3-81-81-81ZM1656,2052c0,19.9-16.1,36-36,36H108c-19.9,0-36-16.1-36-36V108c0-19.9,16.1-36,36-36h1512c19.9,0,36,16.1,36,36v1944Z"/>
  <path d="M468,1144.3c-57.1,0-111.2-34.2-133.7-90.5-99.2-248-154.3-518.3-154.3-801.7h576c0,283.4-55.1,553.8-154.3,801.7-22.5,56.3-76.5,90.5-133.7,90.5"/>
  <g>
    <path d="M1005.7,2016h-283.5v-180c0-196.5,72.7-384.9,204.8-530.5,84.7-93.4,131.3-214.1,131.3-340v-319.4h283.5v319.3c0,196.5-72.7,384.9-204.7,530.5-84.7,93.4-131.3,214.1-131.3,340v180l-.1.1Z"/>
    <path d="M882.5,756.4c-4.4,1.3-8.9,1.9-13.2,1.9-26.1,0-47.3-21.2-47.3-47.3,0-9.2,2.7-18.5,8.3-26.7l369.7-540.3,369.7,540.3c5.6,8.2,8.3,17.5,8.3,26.7,0,26.1-21.2,47.3-47.3,47.3-4.4,0-8.8-.6-13.2-1.9l-317.5-92.6-317.5,92.6Z"/>
  </g>
</svg>