<?xml version="1.0" encoding="utf-8"?>
<!-- Generator: Adobe Illustrator 27.8.1, SVG Export Plug-In . SVG Version: 6.00 Build 0)  -->
<svg version="1.1" id="For_Sheets" xmlns="http://www.w3.org/2000/svg" xmlns:xlink="http://www.w3.org/1999/xlink" x="0px" y="0px"
	 viewBox="0 0 259.7 173.3" style="enable-background:new 0 0 259.7 173.3;" xml:space="preserve">
<style type="text/css">
	.st0{fill:#FFFFFF;}
	.st1{fill:#BF311A;}
</style>
<g>
	<g>
		<path class="st0" d="M11,173.2c-6,0-10.9-4.9-10.9-10.9V11.1C0.1,5,5,0.1,11,0.1h237.6c6,0,10.9,4.9,10.9,10.9v151.2
			c0,6-4.9,10.9-10.9,10.9H11z"/>
		<path d="M248.6,0.2c5.9,0,10.8,4.9,10.8,10.8v151.2c0,5.9-4.9,10.8-10.8,10.8H11.1c-5.9,0-10.8-4.9-10.8-10.8V11.1
			c0-5.9,4.9-10.8,10.8-10.8H248.6 M248.6,0H11.1C5,0,0,5,0,11.1v151.2c0,6.1,5,11.1,11.1,11.1h237.6c6.1,0,11.1-5,11.1-11.1V11.1
			C259.7,5,254.7,0,248.6,0L248.6,0z"/>
	</g>
	<path class="st1" d="M11,169.5c-4,0-7.2-3.2-7.2-7.2V11.1c0-4,3.2-7.2,7.2-7.2h237.6c4,0,7.2,3.2,7.2,7.2v151.2
		c0,4-3.2,7.2-7.2,7.2H11z"/>
	<g>
		<path class="st0" d="M61.2,75.8l-6.8-27.7l-6.7,27.7h-6.1l-6.4-43.2h7l3.3,22.7L51,32.7h6.7l5.6,22.7l3.3-22.7h7l-6.4,43.2H61.2z"
			/>
		<path class="st0" d="M86.9,57v18.8h-6.8V32.7h15.6c9.9,0,12.9,7.9,12.9,12.1c0,1.6-0.6,7.9-6.7,10.8l7.6,20.2h-7.4l-7-18.8H86.9z
			 M95.5,50.1c5.4,0,6.3-3.9,6.3-5.3c0-1.9-1.4-5.3-5.9-5.3h-8.9v10.6H95.5z"/>
		<path class="st0" d="M146.7,54.2c0,1.5,0.3,22.4-15.3,22.4S116,55.8,116,54.2s-0.3-22.4,15.3-22.4S146.7,52.7,146.7,54.2z
			 M131.4,69.6c4.7,0,8.4-4.4,8.4-15.4s-3.8-15.4-8.4-15.4s-8.4,4.4-8.4,15.4C123,65.2,126.8,69.6,131.4,69.6z"/>
		<path class="st0" d="M163,46.6v29.3h-6.8V32.7h6.8l15.8,27.6V32.7h6.8v43.2h-6.1L163,46.6z"/>
		<path class="st0" d="M210.8,31.9c6.9,0,10.8,2.6,13.7,9.5L218,44c-1.8-3.8-3.6-5.2-7-5.2c-9.5,0-8.9,14.5-8.9,15.5
			c0,1.6-0.4,15.3,8,15.3c4.4,0,7.6-2.7,7.6-6.7v-1.8h-7.9v-6.8h14.7V63c0,7.9-5.8,13.6-13.6,13.6c-1.6,0-15.8,1.3-15.8-22.4
			C195.1,50.9,195.3,31.9,210.8,31.9z"/>
	</g>
	<g>
		<path class="st0" d="M97.1,140.6l-6.8-27.7l-6.7,27.7h-6.1l-6.4-43.2h7l3.3,22.7l5.5-22.7h6.7l5.6,22.7l3.3-22.7h7l-6.4,43.2H97.1
			z"/>
		<path class="st0" d="M137.3,128.5h-13.6l-4.3,12.1h-7.3l14.9-43.2h6.9l14.9,43.2h-7.3L137.3,128.5z M126.2,121.6h8.7l-4.3-12.1
			L126.2,121.6z"/>
		<path class="st0" d="M173.6,140.6h-6.9v-18.8l-15.2-24.4h8.2l10.4,16.7l10.5-16.7h8.1l-15.1,24.4V140.6z"/>
	</g>
</g>
</svg>
