<?xml version="1.0" encoding="utf-8"?>
<!-- Generator: Adobe Illustrator 27.9.0, SVG Export Plug-In . SVG Version: 6.00 Build 0)  -->
<svg version="1.1" xmlns="http://www.w3.org/2000/svg" xmlns:xlink="http://www.w3.org/1999/xlink" x="0px" y="0px"
	 viewBox="0 0 86.9 130.1" style="enable-background:new 0 0 86.9 130.1;" xml:space="preserve">
<style type="text/css">
	.st0{fill:#FFFFFF;}
	.st1{fill:#BF311A;}
</style>
<g id="Layer_1">
</g>
<g id="For_Sheets">
	<g>
		<g>
			<path class="st0" d="M11.1,130c-6,0-10.9-4.9-10.9-10.9v-108C0.1,5,5,0.1,11.1,0.1h64.8c6,0,10.9,4.9,10.9,10.9v108
				c0,6-4.9,10.9-10.9,10.9H11.1z"/>
			<path d="M75.9,0.2c5.9,0,10.8,4.9,10.8,10.8v108c0,5.9-4.9,10.8-10.8,10.8H11.1c-5.9,0-10.8-4.9-10.8-10.8v-108
				c0-5.9,4.9-10.8,10.8-10.8H75.9 M75.9,0H11.1C5,0,0,5,0,11.1v108c0,6.1,5,11,11.1,11h64.8c6.1,0,11-5,11-11v-108
				C86.9,5,81.9,0,75.9,0L75.9,0z"/>
		</g>
		<path class="st1" d="M11.1,127.2c-4.5,0-8.1-3.6-8.1-8.1v-108C3,6.6,6.6,3,11.1,3h64.8c4.5,0,8.1,3.6,8.1,8.1v108
			c0,4.5-3.6,8.1-8.1,8.1H11.1z"/>
		<path class="st0" d="M11.1,124.5c-3,0-5.4-2.4-5.4-5.4v-108c0-3,2.4-5.4,5.4-5.4h64.8c3,0,5.4,2.4,5.4,5.4v108
			c0,3-2.4,5.4-5.4,5.4H11.1z"/>
		<g>
			<rect x="23" y="109.1" class="st1" width="48.3" height="5.4"/>
			<path class="st1" d="M26.4,119.1c0.5,0,0.9-0.4,0.9-0.9c0-0.1,0-0.2-0.1-0.3l-2.2-6l2.2-6c0-0.1,0.1-0.2,0.1-0.3
				c0-0.5-0.4-0.9-0.9-0.9c-0.2,0-0.4,0.1-0.5,0.2l-10.3,7l10.3,7C26,119,26.2,119.1,26.4,119.1z"/>
		</g>
		<g>
			<path class="st1" d="M32,20.9v14.5h-3.1V13.8H32l5.9,13v-13H41v21.6h-2.3L32,20.9z"/>
			<path class="st1" d="M45.3,24.5c0-11.3,5.2-11.1,6.4-11.1c1.2,0,6.3-0.2,6.3,11.1c0,11.4-5.2,11.2-6.3,11.2
				C50.5,35.7,45.3,35.9,45.3,24.5z M51.7,16.4c-0.6,0-3.4-0.1-3.4,8.1c0,8.3,2.8,8.2,3.4,8.2c0.6,0,3.4,0.1,3.4-8.2
				C55.1,16.3,52.3,16.4,51.7,16.4z"/>
		</g>
		<g>
			<path class="st1" d="M11.6,44.5V51h1.5c1.7,0,2.3-0.9,2.3-3.1c0-2.4-0.8-3.5-2.3-3.5H11.6z M13.1,53.9h-1.5v9.4H8.9V41.7h4.4
				c4.6,0,4.9,5.1,4.9,6.3C18.1,51.5,16.1,53.9,13.1,53.9z"/>
			<path class="st1" d="M23.3,54.7h2.3L24.5,49L23.3,54.7z M26.2,57.5h-3.6l-1.2,5.8h-2.8l4.4-21.6h2.8l4.5,21.6h-2.9L26.2,57.5z"/>
			<path class="st1" d="M38,47.6c0-2.4-0.5-3.2-2.4-3.2h-1.3v5.9h1.8C37.6,50.4,38,49.7,38,47.6z M38.6,52.5l2.2,10.8h-3l-2.1-10.1
				h-1.5v10.1h-2.7V41.7h4.2c3.3,0,5.1,2,5.1,6.1C40.8,49.8,40.2,51.6,38.6,52.5z"/>
			<polygon class="st1" points="45.9,53 44.9,55.1 44.9,63.2 42.2,63.2 42.2,41.7 44.9,41.7 44.9,48.6 48.2,41.7 51.4,41.7 
				47.9,49.1 51.7,63.2 48.8,63.2 			"/>
			<rect x="53.1" y="41.7" class="st1" width="2.8" height="21.6"/>
			<polygon class="st1" points="60.5,50.4 60.5,63.2 57.8,63.2 57.8,41.7 60.5,41.7 64.4,52.4 64.4,41.7 67.1,41.7 67.1,63.2 
				64.8,63.2 			"/>
			<path class="st1" d="M73.8,41.4c2.4,0,4,1.5,4.3,4.2h-2.8c-0.1-0.9-0.6-1.4-1.4-1.4c-1.4,0-2.3,1.2-2.3,8.3
				c0,7.2,0.9,8.3,2.3,8.3c1.1,0,1.4-1.3,1.4-2.7v-2.6H74v-2.8h4v5.4c0,1.4,0.2,5.5-4.3,5.5c-3.9,0-5-3-5-11.1
				C68.8,42.9,70.8,41.4,73.8,41.4z"/>
		</g>
		<g>
			<path class="st1" d="M34.3,78.2h-3.1l-1,3.9h-2.1l3.6-14.4h2l3.6,14.4h-2.1L34.3,78.2z M31.7,76.2h2.1L32.7,72L31.7,76.2z"/>
			<path class="st1" d="M41.5,72.5v9.6h-2.1V67.8h2.1l3.9,8.6v-8.6h2.1v14.4h-1.6L41.5,72.5z"/>
			<path class="st1" d="M55.1,82.2H53v-6.5l-3.5-7.9h2.2l2.4,5.2l2.4-5.2h2.2l-3.6,7.9V82.2z"/>
		</g>
		<g>
			<path class="st1" d="M30.9,101.1h-2.1V88.6h-2.6v-1.9h7.3v1.9h-2.6V101.1z"/>
			<path class="st1" d="M35.5,86.7h2v14.4h-2V86.7z"/>
			<path class="st1" d="M48.1,93l-2.7,8.1L42.8,93v8.1h-2.1V86.7h2.1l2.7,8.1l2.7-8.1h2.1v14.4h-2.1V93z"/>
			<path class="st1" d="M53.4,86.7h6.8v2h-4.7v3.6h3v2h-3V99h5.3v2h-7.3V86.7z"/>
		</g>
	</g>
</g>
</svg>
