<svg id="R5-1" xmlns="http://www.w3.org/2000/svg" width="30in" height="30in" viewBox="0 0 2160 2160">
  <defs>
    <style>
      .a {
        fill: #fff;
      }
    </style>
  </defs>
  <g>
    <rect class="a" width="2160" height="2160" rx="135"/>
    <path d="M2025,2.2536A132.7467,132.7467,0,0,1,2157.7463,135V2025A132.7467,132.7467,0,0,1,2025,2157.7463H135A132.7467,132.7467,0,0,1,2.2536,2025V135A132.7467,132.7467,0,0,1,135,2.2536ZM135,0A135,135,0,0,0,0,135V2025a135,135,0,0,0,135,135H2025a135,135,0,0,0,135-135V135A135,135,0,0,0,2025,0Z"/>
  </g>
  <circle cx="1080" cy="1080" r="1044" fill="#af1e2d"/>
  <path class="a" d="M1980,1080a904.59,904.59,0,0,1-18,180H198a909,909,0,0,1,0-360H1962A904.59,904.59,0,0,1,1980,1080Z"/>
  <g id="DO_NOT">
    <path class="a" d="M366.729,755.9973V467.9954H470.6255c72.6844,0,92.1606,95.7245,92.1606,137.5211,0,108.0367-55.5483,150.4808-91.98,150.4808Zm96.9845-242.534H412.1612v196.022h48.3482c41.9045,0,55.6568-50.7606,55.6568-104.9768C516.1662,578.7317,508.822,513.4633,463.7135,513.4633Z"/>
    <path class="a" d="M825.0444,611.9958c0,10.3325,2.1956,149.0412-102.3133,149.0412S620.4187,622.3283,620.4187,611.9958s-2.196-149.004,102.3124-149.004S825.0444,601.6644,825.0444,611.9958ZM723.2351,714.5973c31.0324,0,56.233-29.4121,56.233-102.6015s-25.2006-102.6-56.233-102.6-56.2321,29.3769-56.2321,102.6C667.003,685.1852,692.2031,714.5973,723.2351,714.5973Z"/>
    <path class="a" d="M1158.4808,560.9842V755.9973H1113.048V467.9954h45.4328l105.12,183.9256V467.9954h45.5041V755.9973h-40.4282Z"/>
    <path class="a" d="M1577.12,611.9958c0,10.3325,2.1966,149.0412-102.3124,149.0412s-102.3133-138.7087-102.3133-149.0412-2.1956-149.004,102.3133-149.004S1577.12,601.6644,1577.12,611.9958ZM1475.3112,714.5973c31.0324,0,56.2321-29.4121,56.2321-102.6015s-25.2-102.6-56.2321-102.6-56.232,29.3769-56.232,102.6C1419.0792,685.1852,1444.2788,714.5973,1475.3112,714.5973Z"/>
    <path class="a" d="M1726.2272,755.9973h-45.6838V508.4236H1614.59V467.9954h178.633v40.4282h-66.9962Z"/>
  </g>
  <g id="ENTER">
    <path class="a" d="M523.7857,1404h169.56v45.4676H569.2177v70.74H652.99v46.4766H569.2177v78.84h133.2V1692H523.7857Z"/>
    <path class="a" d="M796.8361,1496.9882V1692h-45.432V1404h45.432l105.12,183.9244V1404H947.46v288H907.0325Z"/>
    <path class="a" d="M1102.3241,1692h-45.683V1444.4279H990.6885V1404H1169.32v40.4279h-66.9957Z"/>
    <path class="a" d="M1212.54,1404H1382.1v45.4676H1257.9725v70.74h83.7713v46.4766h-83.7713v78.84h133.1994V1692H1212.54Z"/>
    <path class="a" d="M1485.5909,1566.6483V1692h-45.4324V1404h104.1839c66.0239,0,85.8243,52.8123,85.8243,80.892,0,10.6918-3.96,52.8123-44.7127,72.1077l50.76,135h-49.5355l-46.4765-125.3517Zm57.2035-46.44c36.1442,0,41.8324-26.0638,41.8324-35.3521,0-12.564-9.3967-35.3882-39.6358-35.3882h-59.4v70.74Z"/>
  </g>
</svg>
