<?xml version="1.0" encoding="UTF-8" standalone="no"?>
<!-- Generator: Adobe Illustrator 12.0.1, SVG Export Plug-In  -->

<svg
   xmlns:dc="http://purl.org/dc/elements/1.1/"
   xmlns:cc="http://creativecommons.org/ns#"
   xmlns:rdf="http://www.w3.org/1999/02/22-rdf-syntax-ns#"
   xmlns:svg="http://www.w3.org/2000/svg"
   xmlns="http://www.w3.org/2000/svg"
   xmlns:sodipodi="http://sodipodi.sourceforge.net/DTD/sodipodi-0.dtd"
   xmlns:inkscape="http://www.inkscape.org/namespaces/inkscape"
   version="1.1"
   width="225.09375"
   height="281"
   viewBox="-1 0 225.09375 281"
   enable-background="new -1 0 289 288"
   xml:space="preserve"
   id="svg2"
   inkscape:version="0.48.2 r9819"
   sodipodi:docname="MUTCD R10-10L.svg"><metadata
   id="metadata22"><rdf:RDF><cc:Work
       rdf:about=""><dc:format>image/svg+xml</dc:format><dc:type
         rdf:resource="http://purl.org/dc/dcmitype/StillImage" /><dc:title></dc:title></cc:Work></rdf:RDF></metadata><sodipodi:namedview
   pagecolor="#ffffff"
   bordercolor="#666666"
   borderopacity="1"
   objecttolerance="10"
   gridtolerance="10"
   guidetolerance="10"
   inkscape:pageopacity="0"
   inkscape:pageshadow="2"
   inkscape:window-width="1280"
   inkscape:window-height="1004"
   id="namedview20"
   showgrid="false"
   fit-margin-top="0"
   fit-margin-left="0"
   fit-margin-right="0"
   fit-margin-bottom="0"
   inkscape:zoom="1.1588695"
   inkscape:cx="63.592553"
   inkscape:cy="70.894645"
   inkscape:window-x="-8"
   inkscape:window-y="-8"
   inkscape:window-maximized="1"
   inkscape:current-layer="svg2"
   showguides="true"
   inkscape:guide-bbox="true" />
<defs
   id="defs4">
</defs>







<path
   inkscape:connector-curvature="0"
   d="m 223.34551,266.25961 c 0,7.68625 -6.28875,13.975 -13.975,13.975 l -195.64375,0 c -7.685,0 -13.97375,-6.28875 -13.97375,-13.975 l 0,-251.5425 c 0,-7.685 6.28875,-13.97375 13.97375,-13.97375 l 195.64375,0 c 7.68625,0 13.975,6.28875 13.975,13.97375 l 0,251.5425 z"
   style="fill:#ffffff;fill-opacity:1;fill-rule:nonzero;stroke:#000000;stroke-width:1.5;stroke-miterlimit:4;stroke-opacity:1;stroke-dasharray:none"
   id="path15574" /><path
   inkscape:connector-curvature="0"
   d="m 209.371,4.23663 -195.64375,0 C 7.96225,4.23663 3.246,8.95288 3.246,14.71788 l 0,251.54125 c 0,5.765 4.71625,10.48125 10.48125,10.48125 l 195.64375,0 c 5.765,0 10.48125,-4.71625 10.48125,-10.48125 l 0,-251.54125 c 0,-5.765 -4.71625,-10.48125 -10.48125,-10.48125 m 4.65875,262.0225 c 0,2.5625 -2.09625,4.65875 -4.65875,4.65875 l -195.64375,0 c -2.5625,0 -4.65875,-2.09625 -4.65875,-4.65875 l 0,-251.54125 c 0,-2.5625 2.09625,-4.65875 4.65875,-4.65875 l 195.64375,0 c 2.5625,0 4.65875,2.09625 4.65875,4.65875 l 0,251.54125 z"
   style="fill:#000000;fill-opacity:1;fill-rule:nonzero;stroke:none"
   id="path15582" /><path
   inkscape:connector-curvature="0"
   d="m 65.99987,94.49126 0,32.0225 -5.9075,0 0,-32.0225 -8.5025,0 0,-5.245 23.0225,0 0,5.245 -8.6125,0 z"
   style="fill:#000000;fill-opacity:1;fill-rule:nonzero;stroke:none"
   id="path15586" /><path
   inkscape:connector-curvature="0"
   d="m 103.87474,120.88262 c -1.9325,3.69875 -6.405,6.29375 -10.9875,6.29375 -4.5825,0 -9.11,-2.595 -10.9875,-6.29375 -1.10375,-2.15375 -1.71125,-4.80375 -1.71125,-7.73 l 0,-23.90625 5.9075,0 0,23.90625 c 0,4.85875 2.70625,8.00625 6.79125,8.00625 4.03125,0 6.79125,-3.1475 6.79125,-8.00625 l 0,-23.90625 5.8525,0 0,23.90625 c 0,2.92625 -0.5525,5.57625 -1.65625,7.73"
   style="fill:#000000;fill-opacity:1;fill-rule:nonzero;stroke:none"
   id="path15590" /><path
   inkscape:connector-curvature="0"
   d="m 133.41262,126.51425 -6.0175,-16.2325 -7.0125,0 0,16.2325 -5.9075,0 0,-37.2675 13.5275,0 c 8.5575,0 11.04125,6.84625 11.04125,10.435 0,3.975 -2.31875,7.895 -5.74125,9.44125 l 6.515,17.39125 -6.405,0 z m -5.19,-31.36 -7.84,0 0,9.11 7.785,0 c 2.87125,0 5.02375,-2.04375 5.02375,-4.5825 0,-2.43 -2.0975,-4.5275 -4.96875,-4.5275"
   style="fill:#000000;fill-opacity:1;fill-rule:nonzero;stroke:none"
   id="path15594" /><path
   inkscape:connector-curvature="0"
   d="m 166.31887,126.51425 -14.245,-25.2325 0,25.2325 -5.9075,0 0,-37.2675 5.9075,0 13.5825,23.79625 0,-23.79625 5.8525,0 0,37.2675 -5.19,0 z"
   style="fill:#000000;fill-opacity:1;fill-rule:nonzero;stroke:none"
   id="path15598" /><path
   inkscape:connector-curvature="0"
   d="m 46.53175,178.87763 c -2.15375,2.81625 -5.08,4.19625 -9,4.19625 -5.245,0 -8.4475,-2.09875 -10.71125,-6.68125 -1.545,-3.14625 -2.65,-8.11625 -2.65,-12.5325 0,-6.18375 1.54625,-11.705 4.08625,-15.18375 2.1525,-2.92625 5.245,-4.19625 9.55125,-4.19625 10.325,0 12.81,11.0425 12.81,19.38 0,5.8525 -1.49125,11.705 -4.08625,15.0175 M 37.808,150.49888 c -3.3125,0 -4.85875,1.325 -6.18375,4.5825 -0.88375,2.20875 -1.435,5.63125 -1.435,8.77875 0,3.92 0.8275,7.95 2.26375,10.325 1.15875,1.9325 2.705,2.87 5.07875,2.87 2.76125,0 4.4725,-1.435 5.7425,-4.6925 0.7725,-1.9875 1.435,-5.63125 1.435,-8.5025 0,-4.30625 -0.9375,-13.36125 -6.90125,-13.36125"
   style="fill:#000000;fill-opacity:1;fill-rule:nonzero;stroke:none"
   id="path15602" /><path
   inkscape:connector-curvature="0"
   d="m 78.94075,182.41112 -14.245,-25.23125 0,25.23125 -5.9075,0 0,-37.2675 5.9075,0 13.5825,23.79625 0,-23.79625 5.8525,0 0,37.2675 -5.19,0 z"
   style="fill:#000000;fill-opacity:1;fill-rule:nonzero;stroke:none"
   id="path15606" /><path
   inkscape:connector-curvature="0"
   d="m 131.34825,182.41112 -6.0175,-16.2325 -7.0125,0 0,16.2325 -5.9075,0 0,-37.26875 13.52625,0 c 8.55875,0 11.0425,6.84625 11.0425,10.43625 0,3.975 -2.31875,7.895 -5.74125,9.44125 l 6.515,17.39125 -6.405,0 z m -5.19,-31.36 -7.84,0 0,9.11 7.785,0 c 2.87125,0 5.02375,-2.04375 5.02375,-4.5825 0,-2.43 -2.0975,-4.5275 -4.96875,-4.5275"
   style="fill:#000000;fill-opacity:1;fill-rule:nonzero;stroke:none"
   id="path15610" /><path
   inkscape:connector-curvature="0"
   d="m 144.10186,182.41112 0,-37.26875 21.97375,0 0,5.90875 -16.06625,0 0,9.11 10.82125,0 0,6.0175 -10.82125,0 0,10.215 17.22625,0 0,6.0175 -23.13375,0 z"
   style="fill:#000000;fill-opacity:1;fill-rule:nonzero;stroke:none"
   id="path15614" /><path
   inkscape:connector-curvature="0"
   d="m 186.72561,182.41112 -13.14,0 0,-37.26875 12.03625,0 c 3.80875,0 5.245,0.3325 7.1775,1.9325 3.975,3.36875 6.1275,9.33125 6.1275,16.61875 0,11.0425 -5.68625,18.7175 -12.20125,18.7175 m -0.6075,-31.36 -6.625,0 0,25.3425 6.515,0 c 5.355,0 6.95625,-7.565 6.95625,-12.7 0,-4.30625 -0.88375,-12.6425 -6.84625,-12.6425"
   style="fill:#000000;fill-opacity:1;fill-rule:nonzero;stroke:none"
   id="path15618" /><path
   inkscape:connector-curvature="0"
   d="m 100.55599,70.61175 -22.22,-32.01875 0,32.01875 -8.1425,0 0,-46.57875 8.1425,0 21.3925,30.7075 0,-30.7075 8.00375,0 0,46.57875 -7.17625,0 z"
   style="fill:#000000;fill-opacity:1;fill-rule:nonzero;stroke:none"
   id="path15622" /><path
   inkscape:connector-curvature="0"
   d="m 138.23225,71.43975 c -13.7325,0 -19.80375,-12.42125 -19.80375,-24.22125 0,-14.83625 7.52125,-24.01375 19.80375,-24.01375 11.455,0 19.32125,9.66125 19.32125,23.87625 0,14.56 -7.52125,24.35875 -19.32125,24.35875 m 0,-39.885 c -7.03875,0 -11.2475,5.865 -11.2475,15.66375 0,10.00625 4.20875,15.87125 11.2475,15.87125 8.8325,0 10.9725,-8.625 10.9725,-15.87125 0,-9.79875 -3.93375,-15.66375 -10.9725,-15.66375"
   style="fill:#000000;fill-opacity:1;fill-rule:nonzero;stroke:none"
   id="path15626" /><path
   inkscape:connector-curvature="0"
   d="m 111.60714,256.94325 c 16.555,0 30.22,-13.53 30.22,-30.28 0,-16.635 -13.665,-30.27625 -30.22,-30.27625 -16.78,0 -30.33625,13.64125 -30.33625,30.27625 0,16.75 13.55625,30.28 30.33625,30.28"
   style="fill:#bf2033;fill-opacity:1;fill-rule:evenodd;stroke:none"
   id="path15630" /></svg>