<?xml version="1.0" encoding="utf-8"?>
<!-- Generator: Adobe Illustrator 27.7.0, SVG Export Plug-In . SVG Version: 6.00 Build 0)  -->
<svg version="1.1" id="For_Sheets" xmlns="http://www.w3.org/2000/svg" xmlns:xlink="http://www.w3.org/1999/xlink" x="0px" y="0px"
	 viewBox="0 0 173.3 216.5" style="enable-background:new 0 0 173.3 216.5;" xml:space="preserve">
<style type="text/css">
	.st0{fill:#FFFFFF;}
</style>
<g>
	<g>
		<path class="st0" d="M11.1,216.4c-6,0-10.9-4.9-10.9-10.9V11C0.1,5,5,0.1,11.1,0.1h151.2c6,0,10.9,4.9,10.9,10.9v194.4
			c0,6-4.9,10.9-10.9,10.9H11.1z"/>
		<path d="M162.2,0.2c5.9,0,10.8,4.9,10.8,10.8v194.4c0,5.9-4.9,10.8-10.8,10.8H11c-5.9,0-10.8-4.9-10.8-10.8V11.1
			C0.2,5.1,5.1,0.2,11,0.2H162.2 M162.2,0H11C5,0,0,5,0,11.1v194.4c0,6.1,5,11,11,11h151.2c6.1,0,11-5,11-11V11.1
			C173.3,5,168.3,0,162.2,0L162.2,0z"/>
	</g>
	<path d="M11,213.6c-4.5,0-8.1-3.6-8.1-8.1V11.1C2.9,6.6,6.6,3,11,3h151.2c4.5,0,8.1,3.6,8.1,8.1v194.4c0,4.5-3.6,8.1-8.1,8.1H11z"
		/>
	<path class="st0" d="M11,209.1c-2,0-3.6-1.6-3.6-3.6V11.1c0-2,1.6-3.6,3.6-3.6h151.2c2,0,3.6,1.6,3.6,3.6v194.4
		c0,2-1.6,3.6-3.6,3.6H11z"/>
	<g>
		<path d="M52.3,68.6V25.5h15.6c10.9,0,13.8,14.4,13.8,20.6c0,16.2-8.3,22.6-13.8,22.6H52.3z M66.8,32.3h-7.7v29.4h7.3
			c6.3,0,8.3-7.6,8.3-15.7C74.7,42.1,73.6,32.3,66.8,32.3z"/>
	</g>
	<g>
		<path d="M42.5,100.6v29.3h-6.8V86.7h6.8l15.8,27.6V86.7H65v43.2H59L42.5,100.6z"/>
		<path d="M127.6,129.8h-6.9V92.7h-9.9v-6.1h26.8v6.1h-10V129.8z"/>
	</g>
	<g>
		<path d="M121,47c0,1.5,0.3,22.4-15.3,22.4S90.3,48.6,90.3,47c0-1.5-0.3-22.4,15.3-22.4S121,45.5,121,47z M105.8,62.4
			c4.7,0,8.4-4.4,8.4-15.4c0-11-3.8-15.4-8.4-15.4c-4.7,0-8.4,4.4-8.4,15.4C97.3,58,101.1,62.4,105.8,62.4z"/>
	</g>
	<g>
		<path d="M105.2,108.2c0,1.5,0.3,22.4-15.3,22.4s-15.3-20.8-15.3-22.4c0-1.5-0.3-22.4,15.3-22.4S105.2,106.7,105.2,108.2z
			 M90,123.6c4.7,0,8.4-4.4,8.4-15.4c0-11-3.8-15.4-8.4-15.4c-4.7,0-8.4,4.4-8.4,15.4C81.5,119.2,85.3,123.6,90,123.6z"/>
	</g>
	<g>
		<path d="M33.8,172.3h-8V191H19v-43.2h16.3c10.2,0,13.1,8.3,13.1,12.1C48.4,162.7,46.9,172.3,33.8,172.3z M25.8,165.3h9.6
			c5.4,0,6-3.9,6-5.3c0-2-1.5-5.3-5.8-5.3h-9.8V165.3z"/>
		<path d="M76.1,178.9H62.6L58.3,191H51l14.9-43.2h6.9L87.7,191h-7.3L76.1,178.9z M65,172h8.7l-4.3-12.1L65,172z"/>
		<path d="M91.2,180.9l6.5-2.4c1.8,4.1,5.2,6.4,9.2,6.4c3.9,0,6.7-2.7,6.7-6.4c0-5.8-6.7-6.7-12.3-8.9c-2.6-1.1-8.3-3.6-8.3-10.7
			c0-8.5,5.8-11.7,13.5-11.7c6.1,0,10.1,3.5,12.3,8.8l-6.1,1.8c-1-1.9-3.1-3.8-6.7-3.8c-5.2,0-6.3,2.9-6.3,4.4c0,4,3.5,4.8,9.1,6.6
			c5.8,1.8,11.8,4.5,11.8,13.7c0,9.3-7.6,13.2-13.6,13.2C99.5,191.8,94.1,187.4,91.2,180.9z"/>
		<path d="M124.9,180.9l6.5-2.4c1.8,4.1,5.2,6.4,9.2,6.4c3.9,0,6.7-2.7,6.7-6.4c0-5.8-6.7-6.7-12.3-8.9c-2.6-1.1-8.3-3.6-8.3-10.7
			c0-8.5,5.8-11.7,13.5-11.7c6.1,0,10.1,3.5,12.3,8.8l-6.1,1.8c-1-1.9-3.1-3.8-6.7-3.8c-5.2,0-6.3,2.9-6.3,4.4c0,4,3.5,4.8,9.1,6.6
			c5.8,1.8,11.8,4.5,11.8,13.7c0,9.3-7.6,13.2-13.6,13.2C133.3,191.8,127.8,187.4,124.9,180.9z"/>
	</g>
</g>
</svg>
