<?xml version="1.0" encoding="UTF-8"?>
<svg width="36in" height="12in" viewBox="0 0 2592 864" xmlns="http://www.w3.org/2000/svg">
<defs>
<style>.cls-1{fill:#fff;}</style>
</defs>
<path class="cls-1" d="m108 1.1265h2376a106.87 106.87 0 0 1 106.87 106.87v648a106.87 106.87 0 0 1-106.87 106.87h-2376a106.87 106.87 0 0 1-106.87-106.87v-648a106.87 106.87 0 0 1 106.87-106.87z"/>
<path d="M2484,2.2537A105.8661,105.8661,0,0,1,2589.7463,108V756A105.8661,105.8661,0,0,1,2484,861.7463H108A105.8661,105.8661,0,0,1,2.2537,756V108A105.8661,105.8661,0,0,1,108,2.2537H2484M2484,0H108A108,108,0,0,0,0,108V756A108,108,0,0,0,108,864H2484a108,108,0,0,0,108-108V108A108,108,0,0,0,2484,0Z"/>
<rect x="36" y="36" width="2520" height="792" rx="72"/>
<path class="cls-1" d="M2448,432c-.46.31-514.25,351.91-514.58,352.13a44.9789,44.9789,0,0,1-69.23-47.37h-.01c.05-.22,12.47-53.68,26.9-115.76H216V243H1891.08c-14.43-62.08-26.85-115.54-26.9-115.76h.01a44.9917,44.9917,0,0,1,69.23-47.37C1933.75,80.09,2447.54,431.69,2448,432Z"/>
<g data-name="ONE WAY">
<path d="m510.63 432c0 10.332 2.1956 149.04-102.31 149.04s-102.31-138.71-102.31-149.04-2.1961-149 102.31-149 102.31 138.67 102.31 149zm-101.81 102.6c31.032 0 56.232-29.412 56.232-102.6s-25.201-102.6-56.232-102.6-56.232 29.376-56.232 102.6c2e-4 73.189 25.2 102.6 56.232 102.6z"/>
<path d="m587.78 380.98v195.01h-45.432v-288h45.432l105.12 183.93v-183.93h45.504v288h-40.428z"/>
<path d="m784.37 288h169.56v45.468h-124.13v70.74h83.773v46.477h-83.773v78.84h133.2v46.476h-178.63z"/>
<path d="m1280.4 576-45.648-184.93-44.604 184.93h-40.572l-42.552-288h46.62l22.32 151.6 36.468-151.6h44.64l37.476 151.6 22.32-151.6h46.62l-42.588 288z"/>
<path d="m1529.8 495.14h-90.432l-28.476 80.856h-48.78l99.612-288h45.756l99.576 288h-48.78zm-74.16-46.477h57.923l-28.475-80.819z"/>
<path d="m1699.5 576h-45.721v-125.32l-101.56-162.68h54.864l69.048 111.17 70.092-111.17h53.82l-100.55 162.68z"/>
</g>
</svg>
