<?xml version="1.0" encoding="utf-8"?>
<!-- Generator: Adobe Illustrator 27.8.1, SVG Export Plug-In . SVG Version: 6.00 Build 0)  -->
<svg version="1.1" xmlns="http://www.w3.org/2000/svg" xmlns:xlink="http://www.w3.org/1999/xlink" x="0px" y="0px"
	 viewBox="0 0 173.3 173.3" style="enable-background:new 0 0 173.3 173.3;" xml:space="preserve">
<style type="text/css">
	.st0{fill:#FFFFFF;}
	.st1{fill-rule:evenodd;clip-rule:evenodd;}
	.st2{fill:#BF311A;}
</style>
<g id="Layer_1">
</g>
<g id="For_Sheets">
	<g>
		<g>
			<path class="st0" d="M11.1,173.2c-6,0-10.9-4.9-10.9-10.9V11.1C0.1,5,5,0.1,11.1,0.1h151.2c6,0,10.9,4.9,10.9,10.9v151.2
				c0,6-4.9,10.9-10.9,10.9H11.1z"/>
			<path d="M162.2,0.2c5.9,0,10.8,4.9,10.8,10.8v151.2c0,5.9-4.9,10.8-10.8,10.8H11c-5.9,0-10.8-4.9-10.8-10.8V11.1
				C0.2,5.1,5.1,0.2,11,0.2H162.2 M162.2,0H11C5,0,0,5,0,11.1v151.2c0,6.1,5,11.1,11,11.1h151.2c6.1,0,11-5,11-11.1V11.1
				C173.3,5,168.3,0,162.2,0L162.2,0z"/>
		</g>
		<path d="M11,170.4c-4.5,0-8.1-3.6-8.1-8.1V11.1C2.9,6.6,6.6,3,11,3h151.2c4.5,0,8.1,3.6,8.1,8.1v151.2c0,4.5-3.6,8.1-8.1,8.1H11z
			 M162.2,165.9c2,0,3.6-1.6,3.6-3.6V11.1c0-2-1.6-3.6-3.6-3.6H11c-2,0-3.6,1.6-3.6,3.6v151.2c0,2,1.6,3.6,3.6,3.6H162.2z"/>
		<path class="st1" d="M121.5,99.3L121.5,99.3h11.9V56.2l-64.8-0.1v7.5H58.2c-4.2,0-6.9,0-8.6,5.8l-2.9,11.4H40
			c-3.3,0-3.3,0-3.3,3.2c0,5.1,0,10.2,0,15.3h-3.5v3.5h12.7c0.6,4.8,3.7,8.1,8.6,8.1c4.8,0,8.1-3.4,9.2-8.1h5.1v-3.5h33.8
			c-0.1,0.5-0.1,1.4-0.1,1.9c0,5.3,4.4,9.7,9.7,9.7c5.3,0,9.7-4.4,9.7-9.7C121.7,100.6,121.6,99.9,121.5,99.3z"/>
		<path class="st2" d="M86.6,11.1C44.9,11.1,11,44.9,11,86.7s33.8,75.6,75.6,75.6s75.6-33.8,75.6-75.6S128.4,11.1,86.6,11.1z
			 M147.8,86.7c0,14.3-4.9,27.5-13.1,37.9l-86-86c10.4-8.2,23.6-13.1,37.9-13.1C120.4,25.5,147.8,52.9,147.8,86.7z M25.4,86.7
			c0-14.3,4.9-27.5,13.1-37.9l86,86c-10.4,8.2-23.6,13.1-37.9,13.1C52.9,147.9,25.4,120.4,25.4,86.7z"/>
	</g>
</g>
</svg>
