<svg xmlns="http://www.w3.org/2000/svg" width="89.985" height="90.001" viewBox="0 0 253.958 254.003">
    <path d="M3.362 118.76 118.716 3.403c4.54-4.536 11.942-4.536 16.482 0l115.355 115.359c4.54 4.537 4.54 11.938 0 16.478L135.198 250.597c-4.54 4.54-11.941 4.54-16.482 0L3.362 135.24c-4.48-4.48-4.484-11.998 0-16.478" style="fill:#fcd116;fill-opacity:1;fill-rule:nonzero;stroke:none"/>
    <path d="M5.68 121.02 120.978 5.723c3.27-3.27 8.69-3.263 11.96 0l115.298 115.299c3.274 3.274 3.26 8.682 0 11.959L132.938 248.278c-3.274 3.264-8.682 3.267-11.96 0L5.68 132.98c-3.26-3.277-3.274-8.686 0-11.96" style="fill:#000;fill-opacity:1;fill-rule:evenodd;stroke:none"/>
    <path d="M8.926 124.183 124.143 8.966c1.52-1.577 4.11-1.573 5.634 0L244.99 124.183c1.574 1.52 1.574 4.114 0 5.634L129.777 245.031c-1.52 1.577-4.117 1.58-5.634 0L8.926 129.817c-1.574-1.524-1.574-4.113 0-5.634" style="fill:#fcd116;fill-opacity:1;fill-rule:evenodd;stroke:none"/>
    <path d="M66.804 145.876v-17.37c0-8.51 1.982-16.906 5.567-24.61 1.196-2.572 2.575-5.066 4.17-7.412 2.942-4.332 6.17-8.499 8.36-13.286 2.205-4.815 3.461-10.061 3.461-15.37V54.442h21.548v13.384c0 5.842-.84 11.684-2.47 17.294-1.474 5.076-3.584 10.071-6.58 14.442-1.48 2.166-3.188 4.177-4.846 6.195-1.478 1.8-2.868 3.616-3.884 5.712-2.607 5.362-3.51 11.334-3.553 17.247l-.12 17.159 12.51-4.106c.398-.17.744-.283 1.182-.314 1.555-.124 3.115.666 3.961 1.982.723 1.136.886 2.614.455 3.888-.218.663-.582 1.009-.966 1.563l-27.806 40.1-28.237-40.21c-.712-1.009-1.128-1.358-1.181-2.557-.081-1.7.472-3.119 1.93-4.092.92-.621 2.017-.787 3.1-.621.31.046.494.162.783.26l12.616 4.107zM142.242 85.078l-12.616 4.075c-.553.201-.836.335-1.407.335-1.605 0-2.84-.526-3.775-1.873-.832-1.193-.974-2.78-.44-4.128.225-.589.521-.843.874-1.337l28.353-40.202 27.71 40.1c.272.392.89 1.14 1.07 1.718.13.423.222.868.229 1.312.014 1.807-1.164 3.33-2.766 4.05-.688.318-1.369.42-2.1.286-.338-.06-.67-.081-.966-.261L163.8 85.078l.095 17.138c.021 4.015.47 8.026 1.588 11.885.875 3.03 2.141 6.022 4.064 8.552 1.7 2.243 3.549 4.381 5.277 6.607a39.194 39.194 0 0 1 3.839 6.05c4.388 8.52 6.586 18.14 6.586 27.704v13.462H163.69v-13.462c0-7.401-2.42-14.767-6.54-20.892-1.613-2.388-3.306-4.73-4.919-7.119a55.974 55.974 0 0 1-4.526-8.06c-3.556-7.73-5.464-16.126-5.464-24.628V85.078zM105.976 204.782c.099-4.12.201-8.24.476-12.354a143.784 143.784 0 0 1 4.114-25.901c1.76-6.883 3.584-13.868 6.607-20.327.3-.635.653-1.252 1.045-1.831 1.644-2.424 3.863-3.933 6.741-4.537 2.812-.582 5.768.184 8.096 1.838 1.64 1.16 2.812 2.9 3.57 4.745 2.378 5.754 4.135 11.769 5.652 17.798 2.357 9.334 4.223 18.789 4.946 28.395.303 4.05.392 8.117.497 12.174h-41.744z" style="fill:#000;fill-opacity:1;fill-rule:evenodd;stroke:none"/>
</svg>
