<svg xmlns="http://www.w3.org/2000/svg" width="89.999" height="90" viewBox="0 0 253.996 254">
    <path d="M3.392 118.775 118.772 3.392c4.526-4.523 11.923-4.523 16.45 0l115.383 115.383c4.522 4.523 4.522 11.924 0 16.454L135.222 250.608c-4.527 4.523-11.924 4.523-16.45 0L3.391 135.228c-4.523-4.53-4.523-11.93 0-16.453" style="fill:#fcd116;fill-opacity:1;fill-rule:nonzero;stroke:none"/>
    <path d="M5.59 120.971 120.97 5.591c3.312-3.316 8.738-3.316 12.057 0l115.38 115.38c3.316 3.316 3.316 8.742 0 12.058l-115.38 115.383c-3.32 3.316-8.745 3.316-12.058 0L5.59 133.029c-3.315-3.316-3.315-8.742 0-12.058" style="fill:#000;fill-opacity:1;fill-rule:evenodd;stroke:none"/>
    <path d="M8.888 124.266 124.261 8.883a3.886 3.886 0 0 1 5.468 0l115.38 115.383a3.875 3.875 0 0 1 0 5.465l-115.38 115.38a3.873 3.873 0 0 1-5.468 0L8.888 129.73a3.862 3.862 0 0 1 0-5.465" style="fill:#fcd116;fill-opacity:1;fill-rule:evenodd;stroke:none"/>
    <path d="M135.43 114.432c1.206 4 2.41 8.001 3.612 11.998.473 1.57.826 3.327 1.658 4.76 1.806 3.107 6.16 3.679 8.675 1.054 1.39-1.45 2.145-3.58 3.013-5.352 1.785-3.62 3.57-7.239 5.351-10.858 7.377-14.961 14.753-29.92 22.127-44.88-16.694 0-33.394 0-50.091-.01H117.86c-2.095 0-4.459-.223-6.505.313-3.404.897-5.651 4.752-3.302 7.913 1.09 1.464 2.565 2.794 3.8 4.156 2.804 3.1 5.605 6.202 8.41 9.3-12.926 5.87-25.47 14.876-33.14 27.029-7.627 12.104-8.827 25.238-8.798 39.162.014 9.977.035 19.953.053 29.93 0 .2-.117 1.57.099 1.57h20.806c1.373 0 6.216.941 6.216-.787 0-4.057.007-8.11.007-12.168.007-8.452-.07-16.912.021-25.368.067-6.67 1.521-12.968 5.148-18.623 5.626-8.784 15.846-14.481 24.754-19.142" style="fill:#000;fill-opacity:1;fill-rule:evenodd;stroke:none"/>
</svg>
