<svg xmlns="http://www.w3.org/2000/svg" width="89.985" height="90.001" viewBox="0 0 253.958 254.003">
    <path d="M3.362 118.76 118.716 3.403c4.54-4.536 11.942-4.536 16.482 0l115.355 115.359c4.54 4.537 4.54 11.938 0 16.478L135.198 250.597c-4.54 4.54-11.941 4.54-16.482 0L3.362 135.24c-4.48-4.48-4.484-11.998 0-16.478" style="fill:#fcd116;fill-opacity:1;fill-rule:nonzero;stroke:none"/>
    <path d="M5.68 121.02 120.978 5.723c3.27-3.27 8.69-3.263 11.96 0l115.298 115.299c3.274 3.274 3.26 8.682 0 11.959L132.938 248.278c-3.274 3.264-8.682 3.267-11.96 0L5.68 132.98c-3.26-3.277-3.274-8.686 0-11.96" style="fill:#000;fill-opacity:1;fill-rule:evenodd;stroke:none"/>
    <path d="M8.926 124.183 124.143 8.966c1.52-1.577 4.11-1.573 5.634 0L244.99 124.183c1.574 1.52 1.574 4.114 0 5.634L129.777 245.031c-1.52 1.577-4.117 1.58-5.634 0L8.926 129.817c-1.574-1.524-1.574-4.113 0-5.634" style="fill:#fcd116;fill-opacity:1;fill-rule:evenodd;stroke:none"/>
    <path d="M175.527 82.914c0 4.142-.977 7.518-2.833 9.37-.868.875-1.852 1.2-3.485 1.2h-4.904V72.345h5.56c1.309 0 2.395.543 3.157 1.309 1.528 1.633 2.505 5.119 2.505 9.26m5.016 0c0-6.1-1.852-11.006-5.122-13.84-1.637-1.304-2.833-1.633-5.99-1.633h-10.026v31.056H170.627c1.633-.11 3.267-.653 4.466-1.743 3.486-2.724 5.45-7.627 5.45-13.84m-35.535 1.852h-6.212l3.16-8.717 3.052 8.717zm10.023 13.73-10.675-31.055h-4.908l-10.675 31.056h5.229l3.051-8.718h9.698l3.048 8.718h5.232zm-34.88-15.472c0 2.399-.546 5.447-1.199 7.083-1.09 2.724-2.505 3.923-4.79 3.923-1.966 0-3.271-.762-4.255-2.399-1.2-1.96-1.852-5.337-1.852-8.607 0-2.614.437-5.447 1.203-7.3 1.086-2.726 2.614-3.922 5.01-3.816 1.851.11 3.05.765 4.031 2.399 1.2 2.067 1.852 5.228 1.852 8.717m4.904 0c0-3.923-.762-7.846-2.07-10.57-1.962-3.813-4.686-5.56-8.609-5.56-3.598 0-6.1 1.094-7.955 3.49-2.07 2.942-3.376 7.517-3.376 12.64 0 3.704.872 7.845 2.177 10.46 1.855 3.813 4.579 5.577 8.94 5.577 3.266 0 5.77-1.108 7.513-3.507 2.184-2.723 3.38-7.627 3.38-12.53m-31.722-6.865c0 1.308-.762 2.614-1.961 3.27-.762.434-1.309.543-2.833.543h-5.88v-7.627h5.88c1.637 0 2.07.11 2.833.543 1.2.657 1.961 1.962 1.961 3.27m5.557 22.339-5.447-14.493c2.832-1.308 4.794-4.575 4.794-7.845 0-3.161-1.962-6.428-4.685-7.737-1.524-.762-3.16-.98-5.556-.98H77.75v31.055h4.907V84.985h5.881l5.013 13.512h5.338zM221.357 138.761c0-12.202-14.601-8.389-15.039-14.164-.215-2.833 2.508-3.704 4.798-3.598 3.485.113 4.572 2.727 4.572 2.727l4.364-1.309c-1.531-3.814-4.473-6.318-8.827-6.318-5.56 0-9.701 2.286-9.701 8.389 0 5.122 4.142 6.974 5.994 7.733 4.032 1.637 8.826 2.29 8.826 6.43 0 2.618-1.961 4.58-4.794 4.58-2.942 0-5.341-1.637-6.646-4.58l-4.685 1.744c2.07 4.688 5.99 7.866 11.33 7.866 2.618 0 5.017-.892 6.76-2.416 1.954-1.743 3.048-4.251 3.048-7.084m-23.537-22.119h-5.013l-2.4 16.344-4.028-16.344h-4.794l-3.923 16.344-2.395-16.344h-5.013l4.575 31.055h4.357l4.794-19.942 4.907 19.942h4.357l4.576-31.055zm-36.502 15.579c0 2.399-.543 5.45-1.196 7.083-1.09 2.727-2.508 3.927-4.798 3.927-1.961 0-3.267-.762-4.25-2.395-1.2-1.965-1.85-5.342-1.85-8.615 0-2.61.438-5.444 1.197-7.296 1.09-2.727 2.617-3.926 5.012-3.813 1.856.106 3.056.762 4.033 2.395 1.2 2.07 1.852 5.232 1.852 8.714m4.903 0c0-3.92-.762-7.843-2.07-10.566-1.965-3.814-4.685-5.556-8.605-5.556-3.598 0-6.106 1.086-7.958 3.485-2.068 2.942-3.376 7.518-3.376 12.637 0 3.707.871 7.849 2.176 10.463 1.852 3.814 4.58 5.577 8.936 5.577 3.27 0 5.775-1.107 7.518-3.506 2.18-2.724 3.38-7.627 3.38-12.534m-32.036-6.862c0 1.309-.766 2.614-1.965 3.27-.759.434-1.306.544-2.826.544h-5.884v-7.627h5.884c1.63 0 2.067.109 2.826.543 1.2.656 1.965 1.961 1.965 3.27m5.556 22.338-5.447-14.492c2.833-1.305 4.798-4.576 4.798-7.846 0-3.16-1.965-6.43-4.689-7.736-1.527-.762-3.16-.981-5.56-.981h-10.24v31.055h4.907v-13.511h5.884l5.01 13.511h5.337zm-31.814-22.338c0 1.309-.765 2.614-1.965 3.27-.762.434-1.305.544-2.832.544h-5.885v-7.627h5.885c1.633 0 2.07.109 2.832.543 1.2.656 1.965 1.961 1.965 3.27m5.557 22.338-5.45-14.492c2.836-1.305 4.794-4.576 4.794-7.846 0-3.16-1.958-6.43-4.685-7.736-1.524-.762-3.158-.981-5.557-.981h-10.24v31.055h4.9v-13.511h5.884l5.013 13.511h5.34zm-35.85-13.73h-6.212l3.16-8.717 3.052 8.717zm10.023 13.73-10.679-31.055h-4.9l-10.682 31.055h5.232l3.051-8.714h9.698l3.048 8.714h5.232zm-30.837 0v-31.055h-4.903v19.833l-11.331-19.833h-4.904v31.055h4.904v-21.029l11.878 21.03h4.356z" style="fill:#000;fill-opacity:1;fill-rule:evenodd;stroke:none"/>
</svg>
