<?xml version="1.0" encoding="UTF-8" standalone="no"?>
<svg xmlns="http://www.w3.org/2000/svg" width="90" height="89.998749" version="1.0">
  <g transform="translate(254.7134 -2.584729)">
    <path fill="#cdff00" d="m-252.7434 43.143479 38.52125-38.52c1.12375-1.26625 2.79-2.03875 4.5-2.03875 1.71125 0 3.3975.74875 4.52375 2.03875l38.51625 38.52c1.2425 1.12375 1.96875 2.765 1.96875 4.4525v38.98875c0 3.30375-2.695 5.99875-5.99875 5.99875h-78.00125c-3.30375 0-6-2.695-6-5.99875v-38.98875c0-1.6875.72875-3.32875 1.97-4.4525"/>
    <path fill-rule="evenodd" d="m-213.09465 5.7008544.19875-.2125c.49125-.48375 1.03625-.83 1.68-1.075.1125-.04.22375-.075.3375-.10875.74875-.1975 1.45625-.20625 2.21-.0325l.23.06375c.77375.2425 1.4275.6375 1.98625 1.2275l38.6875 38.7025.20125.1925c.46875.485.80125 1.0225 1.03375 1.655.1275.375.20625.74125.24375 1.135.0075.12.01125.2375.0125.35875l-.005 39.205c-.0175.2275-.045.4425-.085.66375-.05.2175-.10875.42-.17875.63-.13625.345-.29.645-.49.955-.12625.1775-.255.34125-.39625.505-.25375.26625-.50875.48625-.8075.69875-.18375.11875-.365.22125-.5575.3225-.34125.15375-.6625.2625-1.02625.34625-.22375.04125-.4375.06875-.665.085l-78.2075.005c-.2375-.005-.46-.01875-.695-.05125-.22-.03875-.4275-.085-.64125-.14625-.35125-.12-.65875-.25875-.98-.445-.1825-.11625-.3525-.23875-.52375-.3725-.2775-.24-.51-.48375-.73625-.7725-.12625-.1775-.23875-.35375-.3475-.54125-.17-.3325-.29375-.645-.39625-1.00375-.05-.22-.0875-.43-.11625-.65125l-.02375-.47375.00125-39.085.0125-.2325c.07375-.795.325-1.5025.765-2.1675.1775-.25625.37-.485.5925-.70375l38.68625-38.67625z"/>
    <path fill="#cdff00" fill-rule="evenodd" d="m-211.35965 7.3597294.17-.1825c.3475-.34375.7825-.56125 1.2675-.62125.63-.06125 1.27125.17625 1.7075.635l38.78375 38.8025.16375.15375c.39125.405.5875.91375.595 1.475l-.00375 39.0675-.02125.205c-.0925.5175-.32875.91875-.725 1.2625-.24375.1925-.485.3175-.785.4025-.19.045-.36.05875-.555.06375l-78.0575-.0025-.20375-.02125c-.5175-.09375-.9175-.3275-1.2625-.7225-.1925-.2475-.31625-.48625-.4025-.78625-.04375-.19125-.06-.36125-.065-.5575l.00125-38.98875c.0225-.545.24125-1.04875.63-1.4325l38.7625-38.7525z"/>
    <path fill-rule="evenodd" d="M-200.0883975 29.584754c-.375.29875-.77625.5675-1.21875.75-.45.1825-.92.29125-1.40625.3125-.34625.015-.69.0038-1.03125-.0625l-.15625 1-2.34375 2.15625-2.90625 9.8125-4.25 1.75-2.40625-5.3125-3.6875-2.09375c-.29625.16875-.5775.3425-.90625.4375-.30625.0875-.61625.15375-.9375.15625-.4675.0075-.92375-.03125-1.375-.15625h-.09375l-2.59375 2.75-2.5625 8.21875-4.90625 4.65625 1.40625 1.34375 5.8125-3.84375.75-3.0625.9375 2.84375-3.75 11.5625 1.3125.40625-3.90625 14.75 2.09375.75 5.5625-14.75 2.25.15625 6.15625 14.3125 2.1875-.65625-4.4375-13.90625c.4475-.0975.89375-.215 1.34375-.3125.3925-.09.77375-.22 1.15625-.34375l-2.25-6.90625 5.59375-1.34375-1.15625-5.65625h-1.34375l.90625-1.40625-.15625-.34375 4.8125-1.3125 1.25-2.1875 1.84375 7.6875-3.59375 11.3125-1 17.21875 3.9375.34375 1.40625-14.3125 2.40625-5.34375 1.84375 7.34375 6.8125 12.71875 3.59375-1.75-6.40625-13.21875.65625-11.40625 6.8125-2-1.8125-6.65625-1.75.25.5625-3.59375-5.5625-10.5625-3-1.34375-.5-1.15625zm3.09375 10.0625 3 4.59375-.75 2.8125-1 .25-1.25-7.65625zm-19.5625 6.65625.75 1.59375-.6875 2-.90625.15625.84375-3.75zM-199.2509 25.588479c-.04 1.5425-.6775 2.83875-1.96375 3.72625-1.4925 1.03-3.48875.99625-4.98-.0225-1.2175-.83-1.96625-2.22875-1.9625-3.70375 0-1.7925 1.09625-3.425 2.73875-4.13 1.38125-.58875 2.96875-.4425 4.2125.405 1.21125.8275 1.99 2.25 1.955 3.725"/>
    <path fill-rule="evenodd" d="M-217.4834 33.662229c-.05 1.735-1.04875 3.22625-2.655 3.91375-1.875.8-4.04.0775-5.15125-1.6125-1.085-1.64875-.8325-3.92625.55375-5.31625 1.3875-1.39375 3.66875-1.625 5.31625-.55 1.15125.75625 1.97875 2.165 1.93625 3.565"/>
  </g>
</svg>