<svg xmlns="http://www.w3.org/2000/svg" width="74.43" height="74.431" viewBox="0 0 210.058 210.062">
    <path d="m206.65 96.806-93.38-93.37A11.698 11.698 0 0 0 105.036 0c-3.066 0-6.057 1.263-8.24 3.436L3.41 96.806A11.676 11.676 0 0 0 0 105.046c.021 3.066 1.249 6.065 3.411 8.234l93.384 93.367c2.163 2.162 5.193 3.411 8.248 3.415a11.773 11.773 0 0 0 8.234-3.415l93.373-93.363c2.798-2.798 3.99-7.01 3.136-10.862-.5-2.219-1.728-3.866-3.136-5.616" style="fill:#fcd116;fill-opacity:1;fill-rule:nonzero;stroke:none"/>
    <path d="m204.343 110.973-93.37 93.366a8.444 8.444 0 0 1-5.93 2.456 8.436 8.436 0 0 1-5.927-2.456L5.708 110.97c-1.552-1.551-2.434-3.728-2.434-5.926.007-2.198.889-4.378 2.437-5.93L99.11 5.718a8.513 8.513 0 0 1 5.927-2.43c2.198 0 4.382.885 5.937 2.43l93.37 93.398a8.418 8.418 0 0 1 2.452 5.927 8.42 8.42 0 0 1-2.452 5.93" style="fill:#000;fill-opacity:1;fill-rule:evenodd;stroke:none"/>
    <path d="M201.126 107.749a3.878 3.878 0 0 0 1.122-2.706c0-.98-.413-2.021-1.122-2.72L107.742 8.946a3.897 3.897 0 0 0-2.699-1.11c-.988 0-2.021.412-2.723 1.11L8.932 102.323c-.705.71-1.097 1.718-1.097 2.717.007.998.392 1.993 1.104 2.705l93.38 93.391c.703.699 1.743 1.112 2.724 1.112.991 0 2.004-.413 2.706-1.112l93.377-93.387z" style="fill:#fcd116;fill-opacity:1;fill-rule:evenodd;stroke:none"/>
    <path d="M99.838 64.579c-.3-.452-.582-.854-1.086-1.105-.462-.229-.907-.416-1.44-.416-.529 0-1.11.004-1.587-.268-.445-.258-.815-.494-1.182-.857-.332-.335.155-.882.363-1.143.244-.304.544-.812.544-1.21 0-.261-.06-.498-.007-.755.049-.24.151-.459.19-.702.081-.505-.144-.97-.106-1.45.032-.47.089-.907-.038-1.38-.293-1.086-.964-1.665-1.898-2.197-1.697-.97-4.52.098-5.186 1.93a6.068 6.068 0 0 0-.272 3.143c.17 1.023.882 1.87 1.048 2.857.028.17.152.53.102.688-.074.247-.346.141-.578.081-.388-.095-1.062.014-1.415.19-.416.212-.857.385-1.348.385-.472 0-.963-.268-1.425-.2-1.89.267-2.854 1.784-2.854 3.608h-4.096l.727-13.388h55.541l.946 13.642h-34.54c-.096-.494-.106-1.012-.403-1.453m47.604 74.64c-.931-1.873-2.325-3.489-3.993-4.741-3.002-2.247-6.647-3.274-10.17-4.367-5.367-1.676-10.732-3.348-16.102-5.02a40.399 40.399 0 0 1-4.36-1.655c-1.933-.86-3.856-1.743-5.517-3.07-.812-.648-1.5-1.453-1.874-2.42-.377-.99-.173-2 .381-2.885.537-.864 1.31-1.563 1.99-2.314.727-.804 1.577-1.38 2.505-1.92 1.827-1.075 3.905-1.499 5.937-1.996 1.975-.476 3.965-.917 5.951-1.351 4.375-.953 8.439-1.746 12.81-2.688l.095-.021c1.503-.36 3.274-1.637 3.563-3.253l.028-5.281a2.67 2.67 0 0 0 .01-.237h5.151v-.793c0-.254-.07-.59.074-.801.279-.42.455-.857.533-1.348.077-.529.039-.98-.13-1.485-.082-.23-.188-.44-.283-.663-.056-.134.155-.586.187-.755.24-1.108-.003-2.046-.533-3.03-.197-.367-.095-1.073-.056-1.49.035-.352.028-.705.028-1.065 0-2.409.018-4.822-.06-7.231-.07-1.99-.2-4.075-1.185-5.842-.508-.91-1.22-1.595-2.053-2.216-.244-.18-.392-.19-.427-.473l-.127-.942c-.36-2.79-.723-5.584-1.087-8.374l-1.026-7.903c-.078-.606-.16-1.072-.434-1.626-.47-.938-1.552-1.457-2.561-1.528-.706-.045-52.663 0-56.642 0-1.02 0-2.1.004-2.886.79-.536.537-.886 1.133-.984 1.892-.11.867-.223 1.735-.332 2.603-.653 5.087-1.302 10.174-1.954 15.265-.025.19-.805.532-.967.695-.35.349-.751.67-1.051 1.072-.646.857-.953 1.792-1.256 2.805-.275.91-.325 2.014-.356 2.96-.04 1.08-.057 2.159-.089 3.231-.074 2.215.018 4.43.018 6.643 0 .176.063.44.032.61-.036.212-.3.498-.399.71a3.56 3.56 0 0 0-.324 1.527c0 .554.098 1.055.296 1.573.063.162-.18.41-.233.579a4.743 4.743 0 0 0-.198.8 3.047 3.047 0 0 0 .297 1.814c.14.275.307.44.314.758.014.413.02.826.032 1.238l5.15-.038v3.725c0 .021.007.046.018.074l.003.854c-.67.148-1.573.342-2.145.473-2.138.483-4.28.97-6.413 1.446-2.106.473-4.195 1.012-6.29 1.503-1.994.465-4.096.818-5.952 1.714-2.05.988-3.884 2.106-5.5 3.722-1.47 1.471-2.564 3.302-3.002 5.341-.472 2.198-.17 4.332.77 6.357.878 1.902 2.508 3.514 4.279 4.593 1.756 1.076 3.746 1.82 5.655 2.6 1.957.798 3.919 1.644 5.937 2.286 4.783 1.531 9.574 3.055 14.358 4.586 1.58.501 3.143 1.034 4.667 1.676 1.962.826 3.958 1.68 5.606 3.048 1.693 1.408 1.884 3.62 1.548 5.645-.151.913-.571 1.89-.97 2.723-.483 1.005-.96 1.993-1.545 2.95-1.15 1.865-2.473 3.615-4.067 5.136-1.602 1.527-3.352 2.818-5.243 3.968-.084.05-.176.106-.26.16L78 166.015c3.531-2.384 6.91-5.21 9.415-8.696 1.313-1.824 2.48-3.665 3.486-5.676a50.59 50.59 0 0 0 1.404-3.009c.374-.893.515-2.014.62-2.963.484-4.332-1.527-8.361-4.927-10.975-1.719-1.323-3.712-2.138-5.677-3.024-.409-.187-.853-.292-1.284-.426-1.051-.325-2.102-.657-3.15-.978-5.408-1.682-10.813-3.365-16.214-5.044-1.44-.448-2.84-.97-4.219-1.58-1.944-.865-3.93-1.744-5.613-3.063-.829-.653-1.538-1.46-1.958-2.434-.423-.991-.208-2.06.325-2.956.508-.844 1.316-1.644 2.01-2.336a12.36 12.36 0 0 1 2.502-1.922c1.834-1.076 3.93-1.517 5.973-1.997 2.127-.508 4.268-.967 6.402-1.45 4.273-.98 8.576-1.827 12.856-2.78a.751.751 0 0 0 .222-.078c1.524-.472 3.08-1.464 3.09-3.108l.007-5.56h45.445l-.007 4.534c-.691.159-1.626.374-2.155.494-2.131.48-4.251.97-6.382 1.45-2.13.476-4.251 1.016-6.382 1.513-2.028.47-4.043.9-5.958 1.75a17.993 17.993 0 0 0-5.447 3.715c-1.432 1.435-2.716 3.513-2.988 5.549-.145 1.083-.233 2.099-.074 3.192a9.185 9.185 0 0 0 .956 2.996 11.903 11.903 0 0 0 4.24 4.505c1.729 1.05 3.651 1.774 5.514 2.536 1.997.818 4.008 1.683 6.068 2.342 4.727 1.514 9.454 3.027 14.185 4.54 1.591.509 3.168 1.024 4.71 1.666 1.94.8 3.997 1.647 5.623 3.002.769.638 1.38 1.563 1.623 2.536.271 1.094.218 2.05.02 3.15-.186 1.013-.585 1.941-1 2.876-.42.931-.876 1.915-1.433 2.77-1.224 1.872-2.501 3.643-4.107 5.22-1.58 1.545-3.369 2.83-5.252 3.973-.085.056-.177.109-.261.162l3.372 5.479c3.538-2.392 6.932-5.24 9.44-8.728 1.33-1.86 2.512-3.757 3.535-5.8.967-1.93 1.838-3.923 1.958-6.106.113-2.082-.123-4.167-1.072-6.058" style="fill:#000;fill-opacity:1;fill-rule:nonzero;stroke:none"/>
    <path d="m78.417 56.68-.092 1.71 4.326 4.202c.342-.282.74-.5 1.192-.642l-5.426-5.27z" style="fill:#000;fill-opacity:1;fill-rule:nonzero;stroke:none"/>
</svg>
