<svg xmlns="http://www.w3.org/2000/svg" width="90" height="89.992" viewBox="0 0 254 253.978">
    <path d="m135.227 250.564 115.34-115.337c2.167-2.166 3.433-5.165 3.433-8.234 0-3.076-1.266-6.068-3.432-8.244L135.227 3.41a11.652 11.652 0 0 0-16.475 0L3.404 118.75C1.245 120.91 0 123.938 0 126.993c0 3.051 1.245 6.075 3.404 8.234l115.348 115.337c2.794 2.798 7 3.997 10.852 3.143 2.268-.518 3.845-1.704 5.623-3.143" style="fill:#fcd116;fill-opacity:1;fill-rule:nonzero;stroke:none"/>
    <path d="M120.82 248.518 5.456 133.156c-1.605-1.605-2.533-3.884-2.533-6.163 0-2.272.928-4.583 2.533-6.188L120.82 5.457a8.756 8.756 0 0 1 6.16-2.53c2.31 0 4.568.91 6.198 2.53l115.337 115.348a8.84 8.84 0 0 1 2.554 6.188 8.788 8.788 0 0 1-2.554 6.163L133.177 248.518c-1.616 1.605-3.923 2.529-6.198 2.529-2.269 0-4.547-.924-6.16-2.53" style="fill:#000;fill-opacity:1;fill-rule:evenodd;stroke:none"/>
    <path d="M124.244 245.073a4.034 4.034 0 0 0 2.745 1.129c1.005 0 2.032-.42 2.737-1.129l115.359-115.34c.73-.72 1.114-1.726 1.114-2.738 0-1.027-.384-2.022-1.114-2.745L129.726 8.913a3.902 3.902 0 0 0-2.737-1.136 3.962 3.962 0 0 0-2.745 1.136L8.91 124.25a3.937 3.937 0 0 0-1.139 2.745 3.832 3.832 0 0 0 1.14 2.737l115.333 115.341z" style="fill:#fcd116;fill-opacity:1;fill-rule:evenodd;stroke:none"/>
    <path d="m140.701 155.28-.08 39.652-27.207-.067V98.243l-15.057 4.66c-.55.173-1.093.314-1.668.346-1.503.084-3.03-.547-4.093-1.616-1.224-1.249-1.728-3.034-1.456-4.756.14-.874.546-1.608 1.065-2.31L126.97 47.35l34.862 47.216c.716.966 1.121 2.113 1.121 3.32 0 2.204-1.284 4.137-3.305 5.016-1.097.473-2.1.515-3.228.268-.296-.067-.593-.233-.74-.268l-15.41-3.32c1.213 5.341 2.423 10.704 3.955 15.967 2.264 7.793 5.21 15.381 8.618 22.747 3.376 7.278 7.214 14.344 11.631 21.04 2.928 4.438 6.12 8.717 9.296 12.975l-14.98 10.82c-1.34-1.754-2.68-3.503-3.982-5.289-3.002-4.099-5.803-8.357-8.46-12.689-1.982-3.231-3.824-6.54-5.648-9.874" style="fill:#000;fill-opacity:1;fill-rule:evenodd;stroke:none"/>
</svg>
