<svg xmlns="http://www.w3.org/2000/svg" width="81.7" height="81.7" viewBox="0 0 230.576 230.576">
    <path d="M3.286 107.32 107.324 3.286c4.378-4.381 11.55-4.381 15.931 0L227.29 107.32c4.382 4.382 4.382 11.554 0 15.935L123.255 227.293c-4.381 4.378-11.553 4.378-15.931 0L3.286 123.255c-4.381-4.381-4.381-11.553 0-15.935" style="fill:#fcd116;fill-opacity:1;fill-rule:nonzero;stroke:none"/>
    <path d="M6.311 108.295 108.29 6.311c3.852-3.849 10.146-3.849 13.994 0l101.978 101.984c3.852 3.846 3.852 10.143 0 13.984L122.283 224.267c-3.848 3.846-10.142 3.846-13.994 0L6.31 122.28c-3.845-3.841-3.845-10.138 0-13.984" style="fill:#000;fill-opacity:1;fill-rule:evenodd;stroke:none"/>
    <path d="M9.99 110.612 110.613 9.99c2.568-2.572 6.777-2.572 9.349 0L220.58 110.612c2.572 2.572 2.572 6.777 0 9.349l-100.62 100.626c-2.571 2.572-6.78 2.572-9.348 0L9.99 119.961c-2.571-2.572-2.571-6.777 0-9.349" style="fill:#fcd116;fill-opacity:1;fill-rule:evenodd;stroke:none"/>
    <path d="M114.945 121.635c1.27-2.074 1.5-4.727.346-7.034-.691-1.5-2.074-2.65-3.574-3.228l35.049-18.098c-.346 1.5-.23 3.228.575 4.724 1.27 2.307 3.577 3.69 5.993 3.806l-38.389 19.83zm-40.121 20.521c1.386-1.961 1.616-4.61.462-6.918 0-.116-.113-.23-.23-.346l19.368-10.03-1.841-3.69 9.913-5.072c-.346 1.616-.233 3.228.575 4.844 1.153 2.303 3.573 3.57 5.993 3.69l-34.24 17.522zm-18.906 2.537 6.918-3.578c.113.12.113.233.23.35 1.153 2.303 3.46 3.686 5.877 3.802l-15.79 8.072 124.855.346-1.267-63.987-17.526 8.992c1.383-1.958 1.616-4.61.462-6.914-.807-1.616-2.074-2.653-3.573-3.228l8.071-4.269-17.063-33.087L77.593 87.05l15.448 29.972-2.074 1.04-9.225-17.984-15.216 7.838v13.833l-15.68 8.071-1.154 2.999 6.226 11.874z" style="fill:#000;fill-opacity:1;fill-rule:evenodd;stroke:none"/>
</svg>
