<svg xmlns="http://www.w3.org/2000/svg" width="89.999" height="90.006" viewBox="0 0 253.997 254.016">
    <path d="M3.633 118.203 118.187 3.638c4.847-4.85 12.777-4.85 17.625 0l114.55 114.565c4.847 4.843 4.847 12.774 0 17.624l-114.55 114.55c-4.848 4.852-12.778 4.852-17.625 0L3.633 135.828c-4.844-4.85-4.844-12.78 0-17.624" style="fill:#fcd116;fill-opacity:1;fill-rule:nonzero;stroke:none"/>
    <path d="M6.396 120.022 120.008 6.402c3.845-3.845 10.135-3.845 13.984 0L247.6 120.022c3.846 3.845 3.846 10.135 0 13.98L133.992 247.614c-3.849 3.846-10.139 3.846-13.984 0L6.396 134.002c-3.846-3.845-3.846-10.135 0-13.98" style="fill:#000;fill-opacity:1;fill-rule:evenodd;stroke:none"/>
    <path d="M9.947 123.522 123.503 9.952c1.92-1.923 5.07-1.923 6.989 0l113.555 113.57c1.923 1.922 1.923 5.066 0 6.985L130.492 244.066c-1.92 1.923-5.07 1.923-6.989 0L9.947 130.506c-1.922-1.918-1.922-5.062 0-6.984" style="fill:#fcd116;fill-opacity:1;fill-rule:evenodd;stroke:none"/>
    <path d="M114.926 43.134c6.534 0 11.86 5.327 11.86 11.857 0 6.533-5.326 11.867-11.86 11.867-6.533 0-11.856-5.334-11.856-11.867 0-6.53 5.323-11.857 11.856-11.857M79.018 117.927l24.878-16.584c1.15-4.858 5.92-26.437 15.49-31.433 9.476-6.279 44.426 19.477 44.627 19.686v37.556l-7.581-1.316-2.96-29.979c-2.858-.578-5.715-1.15-8.566-1.721 6.238 16.129 8.53 31.672 4.94 41.913L165 197.983l-10.213 7.243-22.07-57.32-10.213 10.873-14.164 43.155-13.511-4.942 12.192-45.463 14.164-25.361-5.43-18.729-5.771 7.525-27.012 8.897-3.955-5.934z" style="fill:#000;fill-opacity:1;fill-rule:evenodd;stroke:none"/>
</svg>
