<svg xmlns="http://www.w3.org/2000/svg" width="90" height="90" viewBox="0 0 254 254">
    <path d="M3.633 118.186 118.19 3.636c4.844-4.848 12.774-4.848 17.625 0l114.547 114.55c4.85 4.847 4.85 12.777 0 17.628l-114.547 114.55c-4.85 4.848-12.781 4.848-17.625 0L3.633 135.815c-4.844-4.85-4.844-12.781 0-17.628" style="fill:#fcd116;fill-opacity:1;fill-rule:nonzero;stroke:none"/>
    <path d="M6.396 120.01 120.008 6.398c3.845-3.846 10.135-3.846 13.987 0L247.6 120.01c3.846 3.845 3.846 10.135 0 13.98L133.995 247.602c-3.852 3.846-10.142 3.846-13.987 0L6.396 133.99c-3.846-3.845-3.846-10.135 0-13.98" style="fill:#000;fill-opacity:1;fill-rule:evenodd;stroke:none"/>
    <path d="M9.944 123.506 123.507 9.95c1.915-1.923 5.066-1.923 6.988 0l113.556 113.556a4.955 4.955 0 0 1 0 6.988L130.495 244.05c-1.922 1.923-5.073 1.923-6.988 0L9.944 130.494c-1.916-1.922-1.916-5.066 0-6.988" style="fill:#fcd116;fill-opacity:1;fill-rule:evenodd;stroke:none"/>
    <path d="M142.063 197.907c-2.543 1.167-3.333 3.097-3.333 5.658l-.007 13.092-24.808-.025c-.109-4.223-.038-8.946-.038-13.166 0-12.657 8.59-24.574 20.323-29.298a6.146 6.146 0 0 0 3.22-5.411c0-2.604-1.66-4.964-4.095-5.842-10.498-4.544-21.586-6.361-31.171-14.295-6.77-5.606-10.464-14.481-10.464-23.368 0-17.156 14.207-30.607 31.158-31.154 3.411-.106 6.226-2.822 6.226-6.251l-.007-9.14-13.73 4.095c-1.901.533-3.309.752-4.77-.243a4.607 4.607 0 0 1-1.217-6.392l32.17-47.562 32.223 47.562c1.429 2.095.875 4.967-1.217 6.392-1.4.952-2.847.78-4.576.342l-13.959-4.194.007 9.147c0 17.385-14.22 31.168-31.15 31.168-3.433 0-6.237 2.801-6.237 6.23 0 2.339 1.273 4.653 3.41 5.553 7.106 2.984 14.401 5.51 21.513 8.502 12.443 5.242 20.807 16.309 20.807 29.45 0 11.927-9.44 24.161-20.278 29.15" style="fill:#000;fill-opacity:1;fill-rule:evenodd;stroke:none"/>
</svg>
