<svg xmlns="http://www.w3.org/2000/svg" width="73.834" height="74.381" viewBox="0 0 208.376 209.92">
    <path d="M205.065 96.737 112.387 3.378c-4.459-4.512-11.913-4.498-16.38.004L3.352 96.731c-4.46 4.487-4.474 11.99-.007 16.478l92.67 93.356c4.446 4.459 11.928 4.487 16.373 0l92.678-93.36c4.805-4.829 4.004-11.535 0-16.467" style="fill:#fcd116;fill-opacity:1;fill-rule:nonzero;stroke:none"/>
    <path d="m202.998 111.12-92.685 93.352c-3.327 3.348-8.89 3.341-12.231 0L5.425 111.117c-3.323-3.359-3.352-8.94-.01-12.302L98.088 5.45c3.316-3.327 8.915-3.337 12.224-.004l92.678 93.37c3.316 3.351 3.33 8.96.007 12.305" style="fill:#000;fill-opacity:1;fill-rule:evenodd;stroke:none"/>
    <path d="M199.562 107.65c1.432-1.461 1.432-3.927 0-5.391L106.866 8.917c-1.446-1.44-3.884-1.474-5.33.004L8.86 102.26c-1.432 1.5-1.46 3.898.007 5.394l92.675 93.352c1.453 1.46 3.855 1.46 5.323 0l92.696-93.355" style="fill:#fcd116;fill-opacity:1;fill-rule:evenodd;stroke:none"/>
    <path d="M150.434 60.348v-3.64h-16.027v3.64h5.92v22.306h4.1V60.348h6.007zm-19.85 22.306V56.708h-4.1v10.47h-9.468v-10.47h-4.1v25.946h4.1V71.366h9.468v11.288h4.1zm-23.309-7.74v-5.189H98.45v4.103h4.73v1.087c0 2.37-1.915 4.01-4.554 4.01-1.548 0-2.727-.641-3.552-2.095-.815-1.64-1.277-4.37-1.277-7.105 0-2.184.374-4.554 1.005-6.096.91-2.282 2.276-3.189 4.371-3.189 2.004 0 3.1.818 4.187 3.097l3.916-1.548c-1.732-4.1-4.095-5.74-8.103-5.74-2.914 0-5.101 1.005-6.65 2.914-1.721 2.282-2.907 6.375-2.907 10.562 0 3.193.632 6.375 1.729 8.654 1.549 3.274 3.824 4.748 7.736 4.748 4.735 0 8.195-3.475 8.195-8.212M84.063 56.708h-4.191v25.946h4.19V56.708zM70.95 63.992c0 1.09-.642 2.188-1.64 2.731-.636.363-1.09.455-2.364.455h-4.921v-6.375h4.92c1.359 0 1.73.092 2.364.455.999.547 1.64 1.64 1.64 2.734m4.643 18.662-4.554-12.107c2.364-1.094 4.011-3.824 4.011-6.555 0-2.645-1.647-5.372-3.923-6.47-1.273-.63-2.639-.814-4.642-.814h-8.559v25.946h4.1V71.366h4.92l4.181 11.288h4.466zM145.915 121.485v-4.187h-12.02v-7.105h7.561v-4.188h-7.56V99.63h11.197v-4.095h-15.296v25.95h16.118zm-22.214 0v-25.95h-4.1v16.57l-9.468-16.57h-4.1v25.95h4.1v-17.572l9.923 17.572h3.645zM93.75 110.013h-5.19l2.64-7.285 2.55 7.285zm8.371 11.472-8.925-25.95h-4.092l-8.922 25.95h4.367l2.551-7.281h8.103l2.547 7.281h4.371zm-23.491 0v-3.824H66.614V95.535h-4.1v25.95H78.63zM145.823 152.787c0-10.196-12.202-7.014-12.559-11.836-.186-2.367 2.089-3.094 4.005-3.01 2.913.096 3.824 2.28 3.824 2.28l3.644-1.09c-1.277-3.19-3.743-5.285-7.38-5.285-4.643 0-8.104 1.912-8.104 7.013 0 4.28 3.461 5.825 5.01 6.467 3.369 1.361 7.373 1.908 7.373 5.369 0 2.184-1.64 3.824-4.004 3.824-2.459 0-4.466-1.369-5.553-3.824l-3.916 1.457c1.725 3.912 5.003 6.569 9.469 6.569 2.184 0 4.184-.745 5.644-2.018 1.64-1.457 2.547-3.553 2.547-5.916m-25.671-5.557c0 3.461-.819 6.283-2.37 7.832-.731.727-1.55.998-2.915.998h-4.1V138.4h4.65c1.09 0 2 .455 2.64 1.094 1.276 1.365 2.095 4.28 2.095 7.736m4.187 0c0-5.097-1.548-9.193-4.283-11.56-1.365-1.094-2.363-1.369-5.002-1.369h-8.378v25.95H116.052c1.366-.091 2.727-.546 3.733-1.457 2.917-2.275 4.554-6.37 4.554-11.564m-23.763 13.021v-25.95h-4.1v16.57l-9.468-16.57H82.91v25.95h4.1V142.68l9.923 17.571h3.644zm-21.946 0v-4.19H66.614v-7.098h7.553v-4.188h-7.553V138.4h11.197v-4.099H62.515v25.95H78.63z" style="fill:#000;fill-opacity:1;fill-rule:evenodd;stroke:none"/>
</svg>
