<svg xmlns="http://www.w3.org/2000/svg" width="89.999" height="90.006" viewBox="0 0 253.997 254.016">
    <path d="M3.633 118.203 118.187 3.638c4.847-4.85 12.777-4.85 17.625 0l114.55 114.565c4.847 4.843 4.847 12.774 0 17.624l-114.55 114.55c-4.848 4.852-12.778 4.852-17.625 0L3.633 135.828c-4.844-4.85-4.844-12.78 0-17.624" style="fill:#fcd116;fill-opacity:1;fill-rule:nonzero;stroke:none"/>
    <path d="M6.396 120.022 120.008 6.402c3.845-3.845 10.135-3.845 13.984 0L247.6 120.022c3.846 3.845 3.846 10.135 0 13.98L133.992 247.614c-3.849 3.846-10.139 3.846-13.984 0L6.396 134.002c-3.846-3.845-3.846-10.135 0-13.98" style="fill:#000;fill-opacity:1;fill-rule:evenodd;stroke:none"/>
    <path d="M9.947 123.522 123.503 9.952c1.92-1.923 5.07-1.923 6.989 0l113.555 113.57c1.923 1.922 1.923 5.066 0 6.985L130.492 244.066c-1.92 1.923-5.07 1.923-6.989 0L9.947 130.506c-1.922-1.918-1.922-5.062 0-6.984" style="fill:#fcd116;fill-opacity:1;fill-rule:evenodd;stroke:none"/>
    <path d="M86.582 140.6c-.558.13-2.953-4.192-5.93-6.697-1.348-1.14-1.119-1.16-1.193-3.453-.17-5.3.896-5.221-2.35-10.94-.3-.53-1.527-2.55-.888-3.68.402-.72.818-1.22 1.118-1.71 1.185-1.951 2.618-.918 4.66-.413 3.19.783 7.694 2.124 10.675 3.207.868-4.177 1.711-7.885 3.75-11.014 3.588-5.503 2.738-3.99 2.378-10.665-.148-2.758.003-5.369.437-8.103-.723-1.77-3.02-2.31-4.74-2.353-.583-.018-1.99-1.016-2.474-1.5-.497-.504-1.947-.225-2.328-1.033-.522-1.097-.42-1.901.14-2.55.297-.343.71-.653 1.204-.928.49-.283 1.065-.537 1.668-.762 2.029-.762 4.477-1.267 5.867-1.715 3.817-1.044 4.717-.956 8.827-1.273 2.067-.16 2.695-.716 3.707-1.503.787-.61 1.662-1.563 1.46-2.692-.197-1.132-1.647-1.524-3.474-1.291-3.016.395-6.784 1.069-9.042-1.686-1.383-1.69-1.178-2.71-1.764-4.06.579 1.022 1.983 2.924 3.627 3.904 1.411.844 2.942 1.186 4.089.494 1.414-.857-1.76-2.776-.07-6.092-.498 4.48 4.113 6.029 6.063 5.112 2.526-1.182 1.03-9.434-2.61-11.201 4.046.007 4.36 4.36 5.419 7.218.589 1.587 2.148 1.14 3.002-.025 1.626-2.212 3.496-7.221-1.584-11.052 4.053 1.57 5.669 4.476 4.536 8.865-1.848 4.554-6.258 8.544-6.836 13.67 1.57-1.129 3.143-1.471 5.143-.811-1.704 2.72-1.83 4.244-4.939 5.147.237 3.037.678 6.16.014 9.15-.395 1.758-.568 2.587-.367 4.167 1.083 8.558-.402 9.945 7.73 19.371 3.26 3.782 8.466 5.352 12.636 8.227 2.918 2.01 3.542 2.23 7.052 2.77 5.867.902 8.425 1.156 13.399 6.123 3.683-.324 4.575-1.936 5.76-2.907 1.458-2.046 2.202-4.162 2.234-7.852 1.746 1.767 3.012 4.06 3.316 6.156.29 2.014-.967 3.351-2.844 4.811-2.067 1.352-3.778 2.706-6.632 2.77.939 2.734 1.31 5.327.674 7.99-.399 6.266-4.071 11.374 1.083 17.05 2.19 2.78 6.043 6.163 6.565 8.333.526 2.17-.74 4.808.07 13.331.904 2.067.019 2.854 3.994 5.14.088 1.944.18 3.88.272 5.824-3.383-1.358-4.04-3.143-5.55-4.265-3.728-2.773-3.756-6.699-4.099-15.021-.254-6.325-17.504-15.815-19.932-18.62-2.705-3.136-3.383-6.953-5.912-8.925-9.042-7.034-23.619-4.36-35.574-12.118-1.51-.614-3.299-.945-4.812-1.552-3.517-2.35-5.93-5.8-10.28-7.317.892 3.592.674 6.636 1.016 9.949.423 2.159 2.801 2.459 3.316 4.127-.138.815-.272 1.627-.41 2.441-.087.812.371 2.286-.267 2.431" style="fill:#000;fill-opacity:1;fill-rule:evenodd;stroke:none"/>
</svg>
