<svg xmlns="http://www.w3.org/2000/svg" width="90" height="90" viewBox="0 0 254 254">
    <path d="M250.608 118.775 135.228 3.392c-4.526-4.523-11.927-4.523-16.453 0L3.392 118.775c-4.523 4.523-4.523 11.924 0 16.454l115.383 115.379c4.526 4.523 11.927 4.523 16.454 0l115.38-115.38c4.522-4.53 4.522-11.93 0-16.453" style="fill:#fcd116;fill-opacity:1;fill-rule:nonzero;stroke:none"/>
    <path d="M248.413 120.971 133.03 5.591c-3.316-3.316-8.741-3.316-12.058 0L5.592 120.972c-3.315 3.316-3.315 8.742 0 12.058l115.38 115.383c3.317 3.316 8.742 3.316 12.058 0l115.383-115.383c3.317-3.316 3.317-8.742 0-12.058" style="fill:#000;fill-opacity:1;fill-rule:evenodd;stroke:none"/>
    <path d="M245.113 124.266 129.733 8.883a3.882 3.882 0 0 0-5.464 0L8.886 124.266a3.875 3.875 0 0 0 0 5.465L124.27 245.11a3.869 3.869 0 0 0 5.465 0l115.38-115.38a3.869 3.869 0 0 0 0-5.465" style="fill:#fcd116;fill-opacity:1;fill-rule:evenodd;stroke:none"/>
    <path d="m177.286 110.383.046 76.528h-27.227l-.007-65.338c0-4.163-3.567-6.788-6.791-6.788l-41.819.16 5.07 15.289c.44.804.635 1.76.716 2.684.264 2.985-2.43 5.415-5.412 5.415a5.517 5.517 0 0 1-3.764-1.52l-46.687-35.796 46.687-34.485a5.501 5.501 0 0 1 3.764-1.52c2.981 0 5.81 2.628 5.412 5.412-.13.92-.272 1.883-.716 2.684l-5.07 14.768 53.086-.029c12.51 0 22.712 10.203 22.712 22.709v-.173z" style="fill:#000;fill-opacity:1;fill-rule:evenodd;stroke:none"/>
</svg>
