<svg xmlns="http://www.w3.org/2000/svg" width="89.985" height="90.001" viewBox="0 0 253.958 254.003">
    <path d="M3.362 118.76 118.716 3.403c4.54-4.536 11.942-4.536 16.482 0l115.355 115.359c4.54 4.537 4.54 11.938 0 16.478L135.198 250.597c-4.54 4.54-11.941 4.54-16.482 0L3.362 135.24c-4.48-4.48-4.484-11.998 0-16.478" style="fill:#fcd116;fill-opacity:1;fill-rule:nonzero;stroke:none"/>
    <path d="M5.68 121.02 120.978 5.723c3.27-3.27 8.69-3.263 11.96 0l115.298 115.299c3.274 3.274 3.26 8.682 0 11.959L132.938 248.278c-3.274 3.264-8.682 3.267-11.96 0L5.68 132.98c-3.26-3.277-3.274-8.686 0-11.96" style="fill:#000;fill-opacity:1;fill-rule:evenodd;stroke:none"/>
    <path d="M8.926 124.183 124.143 8.966c1.52-1.577 4.11-1.573 5.634 0L244.99 124.183c1.574 1.52 1.574 4.114 0 5.634L129.777 245.031c-1.52 1.577-4.117 1.58-5.634 0L8.926 129.817c-1.574-1.524-1.574-4.113 0-5.634" style="fill:#fcd116;fill-opacity:1;fill-rule:evenodd;stroke:none"/>
    <path d="M187.153 108.13v17.37c0 8.509-1.975 16.902-5.567 24.61-1.192 2.568-2.572 5.066-4.17 7.408-2.942 4.332-6.166 8.502-8.357 13.286-2.205 4.815-3.464 10.064-3.464 15.37v13.388h-21.548v-13.388c0-5.838.843-11.68 2.477-17.29 1.474-5.076 3.58-10.071 6.579-14.446 1.482-2.166 3.19-4.173 4.844-6.194 1.474-1.796 2.871-3.613 3.884-5.712 2.607-5.359 3.513-11.331 3.556-17.247l.116-17.156-12.506 4.106c-.399.166-.748.28-1.182.31-1.559.124-3.115-.659-3.961-1.978-.727-1.14-.882-2.614-.463-3.888.226-.663.586-1.009.97-1.563l27.803-40.103 28.236 40.21c.717 1.008 1.13 1.361 1.186 2.557.08 1.7-.477 3.118-1.93 4.092-.924.621-2.018.787-3.1.621-.311-.046-.491-.159-.788-.258l-12.615-4.106zM111.719 168.927l12.615-4.079c.554-.197.836-.331 1.407-.331 1.606 0 2.84.522 3.775 1.87.836 1.188.974 2.78.441 4.127-.226.59-.522.843-.875 1.337l-28.352 40.206-27.711-40.104c-.272-.388-.89-1.14-1.07-1.718a4.456 4.456 0 0 1-.228-1.308c-.011-1.81 1.167-3.33 2.765-4.05.688-.318 1.37-.424 2.1-.286.338.06.67.081.966.257l12.608 4.079-.095-17.138c-.021-4.015-.47-8.03-1.594-11.885-.875-3.03-2.135-6.03-4.057-8.552-1.7-2.244-3.55-4.381-5.278-6.607a39.363 39.363 0 0 1-3.838-6.05c-4.389-8.52-6.594-18.144-6.594-27.704V77.525H90.27v13.466c0 7.401 2.42 14.767 6.54 20.888 1.612 2.392 3.299 4.734 4.918 7.122a55.639 55.639 0 0 1 4.526 8.061c3.556 7.726 5.465 16.122 5.465 24.624v17.24zM147.984 49.222c-.099 4.117-.2 8.24-.476 12.354a143.834 143.834 0 0 1-4.114 25.9c-1.763 6.884-3.584 13.865-6.607 20.328a14.397 14.397 0 0 1-1.04 1.83c-1.648 2.424-3.867 3.934-6.746 4.538-2.811.582-5.768-.187-8.096-1.838-1.64-1.161-2.812-2.9-3.57-4.742-2.378-5.76-4.135-11.768-5.648-17.8-2.357-9.335-4.226-18.79-4.95-28.396-.303-4.053-.391-8.117-.494-12.174h41.741z" style="fill:#000;fill-opacity:1;fill-rule:evenodd;stroke:none"/>
</svg>
