<svg xmlns="http://www.w3.org/2000/svg" width="681.62" height="681.62">
    <path style="fill:#fcd116;fill-opacity:1;fill-rule:nonzero;stroke:none" d="M-80.006 444.71c-12.204-12.205-12.204-31.991 0-44.195l309.36-309.36c12.204-12.204 31.99-12.204 44.194 0l309.36 309.36c12.204 12.204 12.204 31.99 0 44.194l-309.36 309.36c-12.204 12.204-31.99 12.204-44.194 0z" transform="translate(89.36 -81.802)"/>
    <path style="fill:#000;fill-rule:nonzero;stroke:none" d="M267.655 748.176c-8.935 8.936-23.474 8.936-32.409 0l-309.36-309.36c-8.935-8.935-8.935-23.473 0-32.409l309.36-309.36c8.936-8.935 23.474-8.935 32.41 0l309.36 309.36c8.935 8.936 8.935 23.474 0 32.41z" transform="translate(89.36 -81.802)"/>
    <path style="fill:#fcd116;fill-opacity:1;fill-rule:nonzero;stroke:none" d="M258.816 739.34c-4.061 4.061-10.67 4.06-14.731 0L-65.277 429.978c-4.062-4.062-4.062-10.67 0-14.732l309.362-309.362c4.06-4.06 10.67-4.061 14.731 0L568.18 415.246c4.06 4.061 4.06 10.67 0 14.732z" transform="translate(89.36 -81.802)"/>
    <path style="fill:#000;fill-opacity:1;fill-rule:evenodd;stroke:none" d="M209.48 240.662v236.525l37.847-11c2.034-.59 3.701-1.09 5.906-.625 5.414 1.145 9.672 6.023 9.657 11.625-.018 2.47-.902 4.631-2.312 6.656L178.29 604.562 95.972 483.843c-1.41-2.025-2.262-4.186-2.281-6.656-.015-5.602 4.243-10.48 9.656-11.625 2.206-.464 3.841.034 5.876.625l37.878 11V240.662zM293.42 604.562V368.037l-37.846 11c-2.034.59-3.701 1.089-5.906.625-5.414-1.145-9.672-6.023-9.657-11.625.018-2.47.902-4.631 2.312-6.656l82.288-120.72 82.318 120.72c1.41 2.025 2.263 4.186 2.282 6.656.015 5.602-4.244 10.48-9.657 11.625-2.205.464-3.841-.035-5.876-.625l-37.878-11v236.525z" transform="translate(89.36 -81.802)"/>
</svg>
