<svg xmlns="http://www.w3.org/2000/svg" width="108.958" height="108.944" viewBox="0 -0.321 108.958 108.944" xml:space="preserve">
    <path d="M51.56 107.432 1.207 57.08a4.137 4.137 0 0 1 0-5.84L51.557.887A4.139 4.139 0 0 1 57.4.885l50.352 50.356a4.135 4.135 0 0 1 0 5.839L57.4 107.432c-1.588 1.587-4.25 1.59-5.84 0" style="fill:#dd7500;fill-opacity:1;fill-rule:nonzero;stroke:none"/>
    <path d="M52.362 106.612 2.027 56.278c-1.158-1.16-1.155-3.078 0-4.238L52.359 1.707c1.16-1.159 3.076-1.156 4.24 0l50.33 50.335a3.016 3.016 0 0 1 0 4.236L56.6 106.612c-1.161 1.153-3.079 1.156-4.237 0" style="fill:#000;fill-opacity:1;fill-rule:evenodd;stroke:none"/>
    <path d="M53.482 105.462 3.177 55.157a1.403 1.403 0 0 1 0-1.996L53.482 2.857a1.401 1.401 0 0 1 1.995 0l50.305 50.304c.556.54.556 1.459-.002 1.999l-50.3 50.302a1.404 1.404 0 0 1-1.998 0" style="fill:#dd7500;fill-opacity:1;fill-rule:evenodd;stroke:none"/>
    <path d="M70.982 35.425c0 1.48-.35 2.686-1.01 3.348-.315.313-.665.428-1.25.428H66.97v-7.553h1.985c.47 0 .86.195 1.133.468.545.584.894 1.829.894 3.309m1.792 0c0-2.18-.661-3.932-1.831-4.944-.584-.468-1.014-.585-2.141-.585h-3.584v11.096h4.011c.586-.039 1.169-.232 1.596-.622 1.245-.974 1.95-2.727 1.95-4.945m-12.813.66h-2.218l1.129-3.113 1.089 3.114zm3.583 4.907-3.813-11.096h-1.755L54.16 40.992h1.87l1.09-3.114h3.467l1.088 3.114h1.87zm-12.577-5.529c0 .858-.194 1.948-.428 2.532-.388.973-.893 1.4-1.71 1.4-.705 0-1.168-.272-1.52-.855-.43-.702-.665-1.908-.665-3.077 0-.933.157-1.946.43-2.608.39-.973.933-1.402 1.793-1.362.661.038 1.089.272 1.44.857.43.74.66 1.867.66 3.113m1.752 0c0-1.4-.273-2.803-.737-3.775-.701-1.365-1.675-1.987-3.076-1.987-1.287 0-2.18.39-2.842 1.247-.742 1.05-1.208 2.685-1.208 4.515 0 1.325.31 2.804.778 3.738.664 1.364 1.635 1.991 3.194 1.991 1.166 0 2.063-.395 2.685-1.252.779-.972 1.206-2.724 1.206-4.477M41.275 33.01c0 .467-.273.935-.7 1.17-.275.155-.467.193-1.012.193h-2.104v-2.725h2.104c.584 0 .737.04 1.011.195.428.234.701.7.701 1.167m1.985 7.982-1.946-5.177c1.01-.468 1.711-1.635 1.711-2.805 0-1.128-.7-2.297-1.672-2.764-.544-.271-1.13-.35-1.988-.35h-3.657v11.096h1.751v-4.827h2.104l1.79 4.827h1.907zM73.24 60.206l-3.66-6.772 3.428-4.324H70.75l-3.503 4.4v-4.4h-1.753v11.096h1.753v-3.813l1.167-1.442 2.803 5.255h2.023zm-11.403-7.98c0 .465-.272.933-.704 1.168-.27.155-.464.195-1.01.195H58.02v-2.726h2.103c.584 0 .74.04 1.01.195.432.233.704.7.704 1.168m1.985 7.98-1.947-5.178c1.012-.467 1.714-1.634 1.714-2.802 0-1.128-.702-2.298-1.675-2.766-.546-.272-1.127-.35-1.987-.35h-3.66v11.096h1.753V55.38h2.103l1.791 4.826h1.908zm-11.56-5.527c0 .857-.197 1.949-.43 2.53-.39.974-.894 1.404-1.71 1.404-.703 0-1.17-.274-1.52-.858-.428-.701-.662-1.907-.662-3.076 0-.935.154-1.946.427-2.61.388-.971.935-1.401 1.792-1.363.661.042 1.091.274 1.443.858.427.74.66 1.87.66 3.115m1.75 0c0-1.403-.272-2.804-.738-3.776-.7-1.363-1.672-1.987-3.076-1.987-1.286 0-2.18.389-2.841 1.247-.743 1.05-1.21 2.686-1.21 4.516 0 1.324.313 2.802.782 3.737.661 1.363 1.634 1.993 3.194 1.993 1.164 0 2.06-.395 2.682-1.253.78-.973 1.207-2.726 1.207-4.477m-9.104-5.569h-1.795l-.854 5.841-1.444-5.841h-1.708l-1.404 5.841-.856-5.841h-1.793l1.639 11.096h1.555l1.714-7.123 1.752 7.123h1.558l1.636-11.096z" style="fill:#000;fill-opacity:1;fill-rule:evenodd;stroke:none"/>
    <path d="M31.214 79.429v-9.127h-.701v-1.208c.625-.04 1.014-.313 1.247-.78h1.053v11.115h-1.599zM39.715 71.083c-.27-.975-.703-1.404-1.365-1.404-.7 0-1.13.429-1.403 1.365-.272.857-.353 1.599-.353 2.846 0 1.21.118 1.911.353 2.809.272.935.702 1.364 1.403 1.364.662 0 1.094-.43 1.365-1.364.273-.898.352-1.56.352-2.848 0-1.247-.118-1.95-.352-2.768m1.248 6.63c-.545 1.326-1.365 1.91-2.613 1.91-1.323 0-2.107-.584-2.65-1.91-.47-1.093-.626-2.145-.626-3.862 0-1.677.156-2.807.625-3.86.585-1.327 1.364-1.872 2.651-1.872 1.287 0 2.068.545 2.613 1.91.469 1.092.625 2.145.625 3.822 0 1.717-.156 2.808-.625 3.862M48.255 71.083c-.27-.975-.7-1.404-1.365-1.404-.7 0-1.13.429-1.403 1.365-.272.857-.352 1.599-.352 2.846 0 1.21.117 1.911.352 2.809.273.935.702 1.364 1.403 1.364.664 0 1.094-.43 1.365-1.364.275-.898.352-1.56.352-2.848 0-1.247-.118-1.95-.352-2.768m1.248 6.63c-.545 1.326-1.365 1.91-2.613 1.91-1.323 0-2.105-.584-2.65-1.91-.47-1.093-.626-2.145-.626-3.862 0-1.677.156-2.807.625-3.86.585-1.327 1.365-1.872 2.651-1.872 1.29 0 2.068.545 2.613 1.91.469 1.092.625 2.145.625 3.822 0 1.717-.156 2.808-.625 3.862M56.798 71.083c-.274-.975-.704-1.404-1.365-1.404-.704 0-1.131.429-1.406 1.365-.272.857-.35 1.599-.35 2.846 0 1.21.117 1.911.35 2.809.275.935.702 1.364 1.406 1.364.661 0 1.091-.43 1.365-1.364.272-.898.349-1.56.349-2.848 0-1.247-.118-1.95-.35-2.768m1.25 6.63c-.55 1.326-1.367 1.91-2.614 1.91-1.326 0-2.108-.584-2.654-1.91-.466-1.093-.625-2.145-.625-3.862 0-1.677.159-2.807.625-3.86.585-1.327 1.365-1.872 2.654-1.872 1.286 0 2.065.545 2.615 1.91.464 1.092.622 2.145.622 3.822 0 1.717-.158 2.808-.622 3.862M68.028 69.873v2.809h2.224v1.521h-2.224v5.225h-1.596V68.314h5.653v1.56h-4.057zM76.412 69.796v9.633h-1.597v-9.633h-2.028v-1.482h5.656v1.482h-2.031z" style="fill:#000;fill-opacity:1;fill-rule:nonzero;stroke:none"/>
</svg>
