<svg xmlns="http://www.w3.org/2000/svg" width="72" height="57.6">
    <path d="M-1452.667-4023.666h77.193c3.27 0 5.938 2.667 5.938 5.94v59.377a5.95 5.95 0 0 1-5.938 5.938h-77.193a5.95 5.95 0 0 1-5.938-5.938v-59.378c0-3.272 2.668-5.939 5.938-5.939" style="fill:#dd7500;fill-opacity:1;fill-rule:nonzero;stroke:none" transform="matrix(.80836 0 0 .80836 1179.078 3252.57)"/>
    <path d="M-1452.326-4022.123h76.51c2.61 0 4.737 2.123 4.737 4.727v58.716c0 2.603-2.127 4.726-4.737 4.726h-76.51c-2.607 0-4.735-2.123-4.735-4.725v-58.717c0-2.604 2.128-4.727 4.735-4.727" style="fill:#000;fill-opacity:1;fill-rule:evenodd;stroke:none" transform="matrix(.80836 0 0 .80836 1179.078 3252.57)"/>
    <path d="M-1452.275-4019.748h76.408a2.414 2.414 0 0 1 2.412 2.406v58.608a2.414 2.414 0 0 1-2.412 2.405h-76.408a2.412 2.412 0 0 1-2.41-2.405v-58.608a2.413 2.413 0 0 1 2.41-2.406" style="fill:#dd7500;fill-opacity:1;fill-rule:evenodd;stroke:none" transform="matrix(.80836 0 0 .80836 1179.078 3252.57)"/>
    <path d="M-1380.572-4007.488a1.82 1.82 0 0 1-.936 1.562c-.365.207-.626.258-1.354.258h-2.811v-3.643h2.81c.783 0 .99.05 1.355.261.572.31.936.936.936 1.562m2.655 10.671-2.603-6.924c1.353-.625 2.29-2.185 2.29-3.747 0-1.511-.937-3.073-2.235-3.697-.732-.365-1.511-.47-2.657-.47h-4.894v14.838h2.342v-6.456h2.812l2.397 6.456h2.548zm-13.586-5.31v-9.527h-2.344v9.527c0 1.927-1.094 3.176-2.708 3.176-1.613 0-2.706-1.25-2.706-3.176v-9.527h-2.343v9.527c0 1.144.26 2.187.676 3.071.782 1.458 2.551 2.508 4.373 2.508 1.823 0 3.592-1.05 4.373-2.508a7.187 7.187 0 0 0 .679-3.071m-15.67-2.081c0 1.144-.262 2.6-.575 3.383-.519 1.3-1.198 1.874-2.29 1.874-.937 0-1.563-.365-2.03-1.146-.574-.937-.886-2.551-.886-4.111 0-1.251.209-2.604.572-3.489.521-1.302 1.25-1.874 2.395-1.823.887.053 1.46.365 1.927 1.146.574.99.886 2.499.886 4.166m2.341 0c0-1.876-.363-3.749-.988-5.052-.938-1.822-2.239-2.654-4.113-2.654-1.718 0-2.915.52-3.8 1.666-.99 1.405-1.615 3.592-1.615 6.04 0 1.769.416 3.746 1.042 4.997.885 1.822 2.187 2.663 4.27 2.663 1.56 0 2.758-.529 3.592-1.674 1.04-1.303 1.612-3.645 1.612-5.986m-12.389-5.363v-2.083h-9.163v2.083h3.383v12.754h2.343v-12.754h3.437zm-10.31 12.754v-2.394h-6.871v-4.062h4.322v-2.395h-4.322v-3.643h6.403v-2.343h-8.746v14.837h9.215zm-14.836-7.445c0 1.979-.469 3.593-1.355 4.478-.416.416-.885.573-1.665.573h-2.343v-10.1h2.655c.625 0 1.146.261 1.51.623.729.782 1.198 2.448 1.198 4.426m2.395 0c0-2.915-.886-5.258-2.448-6.613-.781-.624-1.353-.78-2.864-.78h-4.789v14.838h5.363c.78-.053 1.56-.312 2.134-.832 1.667-1.302 2.604-3.645 2.604-6.614M-1412.715-3993.28l25.386 17.172-25.386 17.198a2.46 2.46 0 0 1-3.411-.65c-.51-.748-.416-1.522-.184-2.443l2.24-7.451h-26.722v-13.299h26.722l-2.186-7.333c-.283-1.012-.402-1.762.13-2.545a2.46 2.46 0 0 1 3.41-.65" style="fill:#000;fill-opacity:1;fill-rule:evenodd;stroke:none" transform="matrix(.80836 0 0 .80836 1179.078 3252.57)"/>
</svg>
