<svg xmlns="http://www.w3.org/2000/svg" width="444.665" height="444.667" viewBox="-50 -30 44.466 44.467">
    <path d="m-49.12-9.852 19.268-19.268a2.958 2.958 0 0 1 4.17 0L-6.414-9.852a2.958 2.958 0 0 1 0 4.17l-19.268 19.268a2.957 2.957 0 0 1-4.17 0L-49.12-5.68a2.958 2.958 0 0 1 0-4.171" style="fill:#dd7500;fill-opacity:1;fill-rule:evenodd;stroke:none"/>
    <path d="m-48.343-9.587 18.756-18.756a2.581 2.581 0 0 1 3.64 0L-7.19-9.587a2.581 2.581 0 0 1 0 3.64L-25.947 12.81a2.581 2.581 0 0 1-3.64 0L-48.343-5.947a2.581 2.581 0 0 1 0-3.64" style="fill:#000;fill-opacity:1;fill-rule:evenodd;stroke:none"/>
    <path d="M-47.368-9-29-27.367a1.748 1.748 0 0 1 2.465 0L-8.165-9a1.748 1.748 0 0 1 0 2.465l-18.37 18.369a1.748 1.748 0 0 1-2.464 0l-18.37-18.37a1.748 1.748 0 0 1 0-2.464" style="fill:#dd7500;fill-opacity:1;fill-rule:evenodd;stroke:none"/>
    <path d="M-39.02-10.425h-.882l-.422 2.876-.709-2.876h-.843l-.69 2.876-.422-2.876h-.882l.805 5.464h.767l.843-3.508.863 3.508h.767l.805-5.464zm4.563 2.742c0-.69-.135-1.38-.365-1.86-.345-.671-.824-.978-1.514-.978-.633 0-1.074.192-1.4.614-.364.517-.594 1.323-.594 2.224 0 .651.153 1.38.383 1.84.326.67.806.978 1.572.978.576 0 1.016-.192 1.323-.614.384-.48.595-1.342.595-2.204m-.863 0c0 .421-.096.958-.211 1.246-.192.479-.441.69-.844.69-.345 0-.575-.134-.747-.422-.211-.345-.326-.94-.326-1.514 0-.46.077-.959.21-1.285.192-.48.46-.69.883-.67.325.018.536.133.709.42.21.365.326.921.326 1.535m5.77 2.722-.959-2.55c.499-.23.844-.805.844-1.38 0-.556-.345-1.131-.824-1.361-.269-.134-.556-.173-.978-.173h-1.802v5.464h.863v-2.377h1.035l.882 2.377h.939zm-.978-3.93a.67.67 0 0 1-.345.575c-.134.077-.23.096-.498.096h-1.035v-1.342h1.035c.287 0 .364.019.498.096a.67.67 0 0 1 .345.575m5.694 3.93-1.802-3.336 1.687-2.128h-1.112l-1.726 2.167v-2.167h-.862v5.464h.862V-6.84l.576-.71 1.38 2.589h.997zm4.313 0v-.882h-2.53v-1.495h1.59v-.882h-1.59v-1.342h2.357v-.863h-3.22v5.464h3.393zm4.62 0-.959-2.55c.499-.23.844-.805.844-1.38 0-.556-.345-1.131-.824-1.361-.269-.134-.556-.173-.978-.173h-1.802v5.464h.862v-2.377h1.036l.882 2.377h.939zm-.978-3.93a.67.67 0 0 1-.345.575c-.134.077-.23.096-.498.096h-1.036v-1.342h1.036c.287 0 .364.019.498.096a.67.67 0 0 1 .345.575m5.214 2.358c0-2.147-2.568-1.476-2.645-2.492-.038-.499.44-.652.843-.633.614.02.806.48.806.48l.766-.23c-.268-.672-.786-1.113-1.552-1.113-.978 0-1.707.403-1.707 1.476 0 .902.729 1.227 1.055 1.362.71.287 1.553.402 1.553 1.13 0 .46-.345.806-.844.806-.518 0-.94-.288-1.17-.805l-.824.306c.365.825 1.055 1.38 1.994 1.38.46 0 .882-.153 1.189-.421.345-.307.536-.748.536-1.246" style="fill:#000;fill-opacity:1;fill-rule:nonzero;stroke:none"/>
</svg>
