<svg xmlns="http://www.w3.org/2000/svg" width="108.958" height="108.944" viewBox="0 -0.321 108.958 108.944" xml:space="preserve">
    <path d="M51.56 107.432 1.207 57.08a4.137 4.137 0 0 1 0-5.84L51.557.887A4.139 4.139 0 0 1 57.4.885l50.352 50.356a4.135 4.135 0 0 1 0 5.839L57.4 107.432c-1.588 1.587-4.25 1.59-5.84 0" style="fill:#dd7500;fill-opacity:1;fill-rule:nonzero;stroke:none"/>
    <path d="M52.362 106.612 2.027 56.278c-1.158-1.16-1.155-3.078 0-4.238L52.359 1.707c1.16-1.159 3.076-1.156 4.24 0l50.33 50.335a3.016 3.016 0 0 1 0 4.236L56.6 106.612c-1.161 1.153-3.079 1.156-4.237 0" style="fill:#000;fill-opacity:1;fill-rule:evenodd;stroke:none"/>
    <path d="M53.482 105.462 3.177 55.157a1.403 1.403 0 0 1 0-1.996L53.482 2.857a1.401 1.401 0 0 1 1.995 0l50.305 50.304c.556.54.556 1.459-.002 1.999l-50.3 50.302a1.404 1.404 0 0 1-1.998 0" style="fill:#dd7500;fill-opacity:1;fill-rule:evenodd;stroke:none"/>
    <path d="M61.615 24.817c3.568 0 6.478 2.908 6.478 6.475 0 3.567-2.91 6.477-6.478 6.477-3.566 0-6.48-2.91-6.48-6.477s2.914-6.475 6.48-6.475M23.788 39.527h13.258v16.508H23.788V39.527z" style="fill:#000;fill-opacity:1;fill-rule:evenodd;stroke:none"/>
    <path d="M38.233 39.527h30.695L80.3 41.81l1.843-5.359 3.03.615-2.415 9.836-13.75-1.011 2.615 40.658-2.985-.033-5.728-23.369-3.865 23.35H56.19l-.307-40.517-17.65-3.424v-3.029z" style="fill:#000;fill-opacity:1;fill-rule:evenodd;stroke:none"/>
</svg>
